<svg xmlns="http://www.w3.org/2000/svg" xmlns:xlink="http://www.w3.org/1999/xlink" width="1920" zoomAndPan="magnify" viewBox="0 0 1440 449.999984" height="600" preserveAspectRatio="xMidYMid meet" version="1.0"><path fill="#00652d" d="M 39.207031 33.453125 C 74.539062 33.453125 109.871094 33.453125 145.203125 33.453125 C 145.203125 46.105469 145.203125 58.757812 145.203125 71.414062 C 123.394531 71.414062 101.585938 71.414062 79.773438 71.414062 C 79.773438 111.121094 79.773438 150.828125 79.773438 190.535156 C 66.253906 190.535156 52.730469 190.535156 39.207031 190.535156 C 39.207031 138.175781 39.207031 85.8125 39.207031 33.453125 Z M 39.207031 33.453125 " fill-opacity="0.979" fill-rule="evenodd"/><path fill="#00652d" d="M 308.777344 33.453125 C 344.546875 33.453125 380.3125 33.453125 416.082031 33.453125 C 416.082031 85.8125 416.082031 138.175781 416.082031 190.535156 C 402.125 190.535156 388.164062 190.535156 374.207031 190.535156 C 374.207031 150.828125 374.207031 111.121094 374.207031 71.414062 C 352.398438 71.414062 330.589844 71.414062 308.777344 71.414062 C 308.777344 58.757812 308.777344 46.105469 308.777344 33.453125 Z M 308.777344 33.453125 " fill-opacity="0.979" fill-rule="evenodd"/><path fill="#001681" d="M 193.621094 77.960938 C 215 77.742188 236.375 77.960938 257.742188 78.613281 C 261.765625 79.582031 264.601562 81.980469 266.25 85.8125 C 266.902344 91.03125 267.121094 96.265625 266.902344 101.523438 C 293.949219 101.523438 320.992188 101.523438 348.035156 101.523438 C 348.035156 95.847656 348.035156 90.175781 348.035156 84.503906 C 353.707031 84.503906 359.375 84.503906 365.046875 84.503906 C 365.046875 110.683594 365.046875 136.867188 365.046875 163.046875 C 359.375 163.046875 353.707031 163.046875 348.035156 163.046875 C 348.035156 156.9375 348.035156 150.828125 348.035156 144.71875 C 320.992188 144.71875 293.949219 144.71875 266.902344 144.71875 C 267.382812 151.53125 266.292969 158.078125 263.632812 164.355469 C 262.296875 165.910156 260.769531 167.21875 259.050781 168.28125 C 257.867188 175.554688 254.816406 181.882812 249.890625 187.261719 C 245.988281 187.914062 242.0625 188.132812 238.113281 187.917969 C 238.535156 192.792969 238.097656 197.59375 236.804688 202.316406 C 233.316406 204.0625 229.828125 205.808594 226.335938 207.554688 C 222.738281 205.207031 219.027344 203.023438 215.214844 201.007812 C 214.5625 196.664062 214.34375 192.300781 214.558594 187.917969 C 209.742188 188.132812 204.945312 187.917969 200.164062 187.261719 C 196.140625 182.265625 193.523438 176.589844 192.3125 170.246094 C 185.25 163.226562 182.632812 154.714844 184.460938 144.71875 C 159.164062 144.71875 133.863281 144.71875 108.5625 144.71875 C 108.5625 150.828125 108.5625 156.9375 108.5625 163.046875 C 102.894531 163.046875 97.222656 163.046875 91.550781 163.046875 C 91.550781 136.867188 91.550781 110.683594 91.550781 84.503906 C 97.222656 84.503906 102.894531 84.503906 108.5625 84.503906 C 108.5625 90.175781 108.5625 95.847656 108.5625 101.523438 C 133.863281 101.523438 159.164062 101.523438 184.460938 101.523438 C 184.246094 95.832031 184.460938 90.160156 185.117188 84.503906 C 187.160156 81.203125 189.996094 79.019531 193.621094 77.960938 Z M 193.621094 77.960938 " fill-opacity="0.969" fill-rule="evenodd"/><path fill="#00177e" d="M 1328.171875 147.335938 C 1299.8125 147.335938 1271.46875 147.335938 1243.113281 147.335938 C 1271.480469 133.4375 1299.824219 133.4375 1328.171875 147.335938 Z M 1328.171875 147.335938 " fill-opacity="0.908" fill-rule="evenodd"/><path fill="#00177e" d="M 611.0625 147.335938 C 583.582031 149.082031 556.101562 149.082031 528.621094 147.335938 C 549.5625 138.070312 571.375 135.671875 594.050781 140.136719 C 600.226562 141.675781 605.898438 144.078125 611.0625 147.335938 Z M 611.0625 147.335938 " fill-opacity="0.934" fill-rule="evenodd"/><path fill="#00177e" d="M 811.277344 147.335938 C 783.363281 149.082031 755.441406 149.082031 727.527344 147.335938 C 740.464844 140.296875 754.421875 137.242188 769.402344 138.175781 C 784.28125 137.222656 798.242188 140.28125 811.277344 147.335938 Z M 811.277344 147.335938 " fill-opacity="0.938" fill-rule="evenodd"/><path fill="#00177e" d="M 1011.492188 152.574219 C 981.394531 152.574219 951.296875 152.574219 921.199219 152.574219 C 933.8125 142.261719 948.429688 137.460938 965.035156 138.175781 C 982.242188 137.878906 997.738281 142.679688 1011.492188 152.574219 Z M 1011.492188 152.574219 " fill-opacity="0.94" fill-rule="evenodd"/><path fill="#00177e" d="M 1182.917969 148.648438 C 1170.261719 148.648438 1157.621094 148.648438 1144.96875 148.648438 C 1156.417969 141.308594 1169.058594 137.816406 1182.917969 138.175781 C 1182.917969 141.664062 1182.917969 145.15625 1182.917969 148.648438 Z M 1182.917969 148.648438 " fill-opacity="0.913" fill-rule="evenodd"/><path fill="#00177e" d="M 912.039062 152.574219 C 898.519531 152.574219 884.988281 152.574219 871.472656 152.574219 C 871.472656 148.648438 871.472656 144.71875 871.472656 140.792969 C 884.988281 140.792969 898.519531 140.792969 912.039062 140.792969 C 912.039062 144.71875 912.039062 148.648438 912.039062 152.574219 Z M 912.039062 152.574219 " fill-opacity="0.956" fill-rule="evenodd"/><path fill="#00177e" d="M 1122.722656 148.648438 C 1109.203125 148.648438 1095.671875 148.648438 1082.15625 148.648438 C 1082.15625 146.027344 1082.15625 143.410156 1082.15625 140.792969 C 1095.671875 140.792969 1109.203125 140.792969 1122.722656 140.792969 C 1122.722656 143.410156 1122.722656 146.027344 1122.722656 148.648438 Z M 1122.722656 148.648438 " fill-opacity="0.943" fill-rule="evenodd"/><path fill="#001b7e" d="M 528.621094 147.335938 C 556.101562 149.082031 583.582031 149.082031 611.0625 147.335938 C 624.148438 154.320312 634.179688 164.355469 641.160156 177.445312 C 625.890625 177.445312 610.625 177.445312 595.359375 177.445312 C 578.800781 168.71875 562.222656 168.71875 545.632812 177.445312 C 529.929688 177.445312 514.226562 177.445312 498.523438 177.445312 C 505.472656 164.382812 515.507812 154.347656 528.621094 147.335938 Z M 528.621094 147.335938 " fill-opacity="0.972" fill-rule="evenodd"/><path fill="#001b7e" d="M 727.527344 147.335938 C 755.441406 149.082031 783.363281 149.082031 811.277344 147.335938 C 822.765625 153.734375 832.359375 162.242188 840.066406 172.863281 C 837.839844 174.402344 835.667969 175.929688 833.523438 177.445312 C 816.941406 177.445312 800.375 177.445312 783.796875 177.445312 C 775.511719 175.699219 767.214844 175.699219 758.933594 177.445312 C 737.558594 177.445312 716.183594 177.445312 694.8125 177.445312 C 702.824219 164.191406 713.730469 154.15625 727.527344 147.335938 Z M 727.527344 147.335938 " fill-opacity="0.979" fill-rule="evenodd"/><path fill="#001b7e" d="M 1243.113281 147.335938 C 1271.46875 147.335938 1299.8125 147.335938 1328.171875 147.335938 C 1342.851562 153.296875 1353.753906 163.328125 1360.886719 177.445312 C 1339.949219 177.445312 1319.011719 177.445312 1298.074219 177.445312 C 1290.207031 175.820312 1282.355469 175.820312 1274.519531 177.445312 C 1253.34375 177.878906 1232.40625 177.441406 1211.707031 176.136719 C 1219.257812 163.34375 1229.726562 153.746094 1243.113281 147.335938 Z M 1243.113281 147.335938 " fill-opacity="0.98" fill-rule="evenodd"/><path fill="#001b7e" d="M 1082.15625 148.648438 C 1095.671875 148.648438 1109.203125 148.648438 1122.722656 148.648438 C 1122.5 155.207031 1122.722656 161.75 1123.375 168.28125 C 1129.1875 160.0625 1136.382812 153.515625 1144.96875 148.648438 C 1157.621094 148.648438 1170.261719 148.648438 1182.917969 148.648438 C 1182.917969 157.808594 1182.917969 166.972656 1182.917969 176.136719 C 1177.722656 177.003906 1172.488281 177.4375 1167.214844 177.445312 C 1138.855469 177.445312 1110.511719 177.445312 1082.15625 177.445312 C 1082.15625 167.847656 1082.15625 158.246094 1082.15625 148.648438 Z M 1082.15625 148.648438 " fill-opacity="0.979" fill-rule="evenodd"/><path fill="#001a7e" d="M 871.472656 152.574219 C 884.988281 152.574219 898.519531 152.574219 912.039062 152.574219 C 911.828125 155.226562 912.039062 157.84375 912.691406 160.429688 C 915.363281 157.539062 918.1875 154.921875 921.199219 152.574219 C 951.296875 152.574219 981.394531 152.574219 1011.492188 152.574219 C 1025.976562 162.714844 1036.015625 176.238281 1041.589844 193.152344 C 1026.65625 192.746094 1011.816406 193.183594 997.097656 194.460938 C 978.03125 174.632812 956.214844 171.359375 931.667969 184.644531 C 928.34375 188.1875 924.863281 191.457031 921.199219 194.460938 C 904.855469 193.160156 888.273438 192.722656 871.472656 193.152344 C 871.472656 179.628906 871.472656 166.101562 871.472656 152.574219 Z M 871.472656 152.574219 " fill-opacity="0.983" fill-rule="evenodd"/><path fill="#002181" d="M 1211.707031 176.136719 C 1232.40625 177.441406 1253.34375 177.878906 1274.519531 177.445312 C 1265.5 180.214844 1257.648438 185.015625 1250.964844 191.84375 C 1235.925781 190.542969 1220.667969 190.105469 1205.164062 190.535156 C 1206.3125 185.191406 1208.488281 180.390625 1211.707031 176.136719 Z M 1211.707031 176.136719 " fill-opacity="0.955" fill-rule="evenodd"/><path fill="#002181" d="M 498.523438 177.445312 C 514.226562 177.445312 529.929688 177.445312 545.632812 177.445312 C 540.367188 181.449219 536.003906 186.25 532.546875 191.84375 C 519.261719 190.542969 505.738281 190.105469 491.980469 190.535156 C 493.496094 185.757812 495.679688 181.390625 498.523438 177.445312 Z M 498.523438 177.445312 " fill-opacity="0.962" fill-rule="evenodd"/><path fill="#002181" d="M 595.359375 177.445312 C 610.625 177.445312 625.890625 177.445312 641.160156 177.445312 C 644.007812 181.398438 646.1875 185.761719 647.703125 190.535156 C 634.378906 190.109375 621.292969 190.542969 608.445312 191.84375 C 604.988281 186.25 600.625 181.449219 595.359375 177.445312 Z M 595.359375 177.445312 " fill-opacity="0.965" fill-rule="evenodd"/><path fill="#002181" d="M 694.8125 177.445312 C 716.183594 177.445312 737.558594 177.445312 758.933594 177.445312 C 749.71875 180.53125 741.433594 185.328125 734.070312 191.84375 C 719.035156 190.542969 703.769531 190.105469 688.269531 190.535156 C 690.449219 186.171875 692.628906 181.808594 694.8125 177.445312 Z M 694.8125 177.445312 " fill-opacity="0.96" fill-rule="evenodd"/><path fill="#002181" d="M 783.796875 177.445312 C 800.375 177.445312 816.941406 177.445312 833.523438 177.445312 C 827.464844 182.230469 821.367188 187.03125 815.203125 191.84375 C 812.585938 190.097656 809.96875 190.097656 807.351562 191.84375 C 800.675781 185.019531 792.824219 180.21875 783.796875 177.445312 Z M 783.796875 177.445312 " fill-opacity="0.91" fill-rule="evenodd"/><path fill="#002181" d="M 1082.15625 177.445312 C 1110.511719 177.445312 1138.855469 177.445312 1167.214844 177.445312 C 1156.71875 179.636719 1147.125 184 1138.425781 190.535156 C 1119.671875 190.535156 1100.90625 190.535156 1082.15625 190.535156 C 1082.15625 186.171875 1082.15625 181.808594 1082.15625 177.445312 Z M 1082.15625 177.445312 " fill-opacity="0.97" fill-rule="evenodd"/><path fill="#002181" d="M 1298.074219 177.445312 C 1319.011719 177.445312 1339.949219 177.445312 1360.886719 177.445312 C 1363.722656 181.390625 1365.910156 185.757812 1367.429688 190.535156 C 1351.921875 190.105469 1336.664062 190.542969 1321.628906 191.84375 C 1314.941406 185.015625 1307.089844 180.214844 1298.074219 177.445312 Z M 1298.074219 177.445312 " fill-opacity="0.96" fill-rule="evenodd"/><path fill="#002683" d="M 491.980469 190.535156 C 505.738281 190.105469 519.261719 190.542969 532.546875 191.84375 C 532.03125 194.179688 531.160156 196.359375 529.929688 198.390625 C 516.40625 198.390625 502.886719 198.390625 489.363281 198.390625 C 489.980469 195.667969 490.851562 193.050781 491.980469 190.535156 Z M 491.980469 190.535156 " fill-opacity="0.968" fill-rule="evenodd"/><path fill="#002683" d="M 647.703125 190.535156 C 648.320312 193.257812 649.191406 195.875 650.320312 198.390625 C 637.234375 198.390625 624.148438 198.390625 611.0625 198.390625 C 609.832031 196.359375 608.960938 194.179688 608.445312 191.84375 C 621.292969 190.542969 634.378906 190.109375 647.703125 190.535156 Z M 647.703125 190.535156 " fill-opacity="0.971" fill-rule="evenodd"/><path fill="#002683" d="M 688.269531 190.535156 C 703.769531 190.105469 719.035156 190.542969 734.070312 191.84375 C 733.089844 194.242188 731.78125 196.425781 730.144531 198.390625 C 715.515625 198.820312 701.121094 198.382812 686.960938 197.082031 C 687.128906 194.835938 687.566406 192.652344 688.269531 190.535156 Z M 688.269531 190.535156 " fill-opacity="0.978" fill-rule="evenodd"/><path fill="#002583" d="M 815.203125 191.84375 C 812.324219 196.574219 809.707031 196.574219 807.351562 191.84375 C 809.96875 190.097656 812.585938 190.097656 815.203125 191.84375 Z M 815.203125 191.84375 " fill-opacity="0.732" fill-rule="evenodd"/><path fill="#002683" d="M 1082.15625 190.535156 C 1100.90625 190.535156 1119.671875 190.535156 1138.425781 190.535156 C 1136.683594 193.152344 1134.5 195.335938 1131.882812 197.082031 C 1115.300781 197.082031 1098.734375 197.082031 1082.15625 197.082031 C 1082.15625 194.898438 1082.15625 192.71875 1082.15625 190.535156 Z M 1082.15625 190.535156 " fill-opacity="0.969" fill-rule="evenodd"/><path fill="#002683" d="M 1205.164062 190.535156 C 1220.667969 190.105469 1235.925781 190.542969 1250.964844 191.84375 C 1249.183594 194.058594 1247.429688 196.238281 1245.730469 198.390625 C 1231.097656 198.820312 1216.703125 198.382812 1202.546875 197.082031 C 1202.414062 194.394531 1203.292969 192.210938 1205.164062 190.535156 Z M 1205.164062 190.535156 " fill-opacity="0.972" fill-rule="evenodd"/><path fill="#002683" d="M 1367.429688 190.535156 C 1369.039062 192.886719 1369.914062 195.507812 1370.042969 198.390625 C 1355.21875 198.390625 1340.378906 198.390625 1325.554688 198.390625 C 1324.570312 195.992188 1323.261719 193.808594 1321.628906 191.84375 C 1336.664062 190.542969 1351.921875 190.105469 1367.429688 190.535156 Z M 1367.429688 190.535156 " fill-opacity="0.974" fill-rule="evenodd"/><path fill="#001681" d="M 201.472656 191.84375 C 205.398438 191.84375 209.324219 191.84375 213.25 191.84375 C 213.035156 195.363281 213.253906 198.851562 213.90625 202.316406 C 216.566406 204.320312 219.402344 206.066406 222.410156 207.554688 C 223.71875 263.835938 224.15625 320.121094 223.71875 376.417969 C 225.464844 376.417969 227.210938 376.417969 228.953125 376.417969 C 228.519531 320.121094 228.953125 263.835938 230.261719 207.554688 C 233.636719 205.972656 236.910156 204.230469 240.078125 202.316406 C 240.726562 198.851562 240.945312 195.363281 240.730469 191.84375 C 244.65625 191.84375 248.582031 191.84375 252.507812 191.84375 C 252.507812 257.730469 252.507812 323.621094 252.507812 389.507812 C 235.496094 389.507812 218.484375 389.507812 201.472656 389.507812 C 201.472656 323.621094 201.472656 257.730469 201.472656 191.84375 Z M 201.472656 191.84375 " fill-opacity="0.957" fill-rule="evenodd"/><path fill="#002181" d="M 871.472656 193.152344 C 888.273438 192.722656 904.855469 193.160156 921.199219 194.460938 C 917.875 200.234375 915.257812 206.34375 913.347656 212.789062 C 899.382812 212.789062 885.433594 212.789062 871.472656 212.789062 C 871.472656 206.242188 871.472656 199.699219 871.472656 193.152344 Z M 871.472656 193.152344 " fill-opacity="0.985" fill-rule="evenodd"/><path fill="#002181" d="M 1041.589844 193.152344 C 1043.734375 199.515625 1045.042969 206.0625 1045.515625 212.789062 C 1031.996094 212.789062 1018.464844 212.789062 1004.949219 212.789062 C 1003.757812 206.039062 1001.140625 199.933594 997.097656 194.460938 C 1011.816406 193.183594 1026.65625 192.746094 1041.589844 193.152344 Z M 1041.589844 193.152344 " fill-opacity="0.973" fill-rule="evenodd"/><path fill="#002984" d="M 686.960938 197.082031 C 701.121094 198.382812 715.515625 198.820312 730.144531 198.390625 C 728.835938 201.007812 727.527344 203.625 726.21875 206.242188 C 712.257812 206.242188 698.300781 206.242188 684.34375 206.242188 C 684.632812 202.882812 685.503906 199.828125 686.960938 197.082031 Z M 686.960938 197.082031 " fill-opacity="0.961" fill-rule="evenodd"/><path fill="#002984" d="M 1082.15625 197.082031 C 1098.734375 197.082031 1115.300781 197.082031 1131.882812 197.082031 C 1130.613281 199.675781 1129.304688 202.292969 1127.957031 204.933594 C 1112.683594 204.933594 1097.425781 204.933594 1082.15625 204.933594 C 1082.15625 202.316406 1082.15625 199.699219 1082.15625 197.082031 Z M 1082.15625 197.082031 " fill-opacity="0.972" fill-rule="evenodd"/><path fill="#002984" d="M 1202.546875 197.082031 C 1216.703125 198.382812 1231.097656 198.820312 1245.730469 198.390625 C 1245.085938 201.425781 1243.777344 204.042969 1241.804688 206.242188 C 1227.839844 206.242188 1213.890625 206.242188 1199.929688 206.242188 C 1200.214844 202.882812 1201.09375 199.828125 1202.546875 197.082031 Z M 1202.546875 197.082031 " fill-opacity="0.96" fill-rule="evenodd"/><path fill="#002984" d="M 489.363281 198.390625 C 502.886719 198.390625 516.40625 198.390625 529.929688 198.390625 C 528.800781 200.90625 527.929688 203.523438 527.3125 206.242188 C 514.226562 206.242188 501.140625 206.242188 488.054688 206.242188 C 488.078125 203.539062 488.511719 200.921875 489.363281 198.390625 Z M 489.363281 198.390625 " fill-opacity="0.974" fill-rule="evenodd"/><path fill="#002984" d="M 611.0625 198.390625 C 624.148438 198.390625 637.234375 198.390625 650.320312 198.390625 C 650.753906 201.007812 651.191406 203.625 651.628906 206.242188 C 638.976562 206.242188 626.328125 206.242188 613.679688 206.242188 C 613.0625 203.523438 612.191406 200.90625 611.0625 198.390625 Z M 611.0625 198.390625 " fill-opacity="0.969" fill-rule="evenodd"/><path fill="#002984" d="M 1325.554688 198.390625 C 1340.378906 198.390625 1355.21875 198.390625 1370.042969 198.390625 C 1370.921875 201.007812 1371.785156 203.625 1372.660156 206.242188 C 1358.269531 206.242188 1343.875 206.242188 1329.480469 206.242188 C 1328.667969 203.347656 1327.359375 200.730469 1325.554688 198.390625 Z M 1325.554688 198.390625 " fill-opacity="0.968" fill-rule="evenodd"/><path fill="#002e86" d="M 1082.15625 204.933594 C 1097.425781 204.933594 1112.683594 204.933594 1127.957031 204.933594 C 1126.449219 208.800781 1125.140625 212.726562 1124.03125 216.714844 C 1110.066406 216.714844 1096.117188 216.714844 1082.15625 216.714844 C 1082.15625 212.789062 1082.15625 208.863281 1082.15625 204.933594 Z M 1082.15625 204.933594 " fill-opacity="0.971" fill-rule="evenodd"/><path fill="#002f86" d="M 488.054688 206.242188 C 501.140625 206.242188 514.226562 206.242188 527.3125 206.242188 C 527.261719 207.660156 526.824219 208.96875 526.003906 210.171875 C 555.664062 211.914062 585.324219 211.914062 614.988281 210.171875 C 614.167969 208.96875 613.730469 207.660156 613.679688 206.242188 C 626.328125 206.242188 638.976562 206.242188 651.628906 206.242188 C 652.492188 210.113281 652.925781 214.039062 652.9375 218.023438 C 597.539062 218.023438 542.144531 218.023438 486.746094 218.023438 C 486.4375 213.957031 486.871094 210.027344 488.054688 206.242188 Z M 488.054688 206.242188 " fill-opacity="0.989" fill-rule="evenodd"/><path fill="#002e86" d="M 684.34375 206.242188 C 698.300781 206.242188 712.257812 206.242188 726.21875 206.242188 C 724.734375 210 723.863281 213.929688 723.601562 218.023438 C 710.078125 218.023438 696.554688 218.023438 683.035156 218.023438 C 682.863281 214.007812 683.296875 210.078125 684.34375 206.242188 Z M 684.34375 206.242188 " fill-opacity="0.972" fill-rule="evenodd"/><path fill="#002e86" d="M 1199.929688 206.242188 C 1213.890625 206.242188 1227.839844 206.242188 1241.804688 206.242188 C 1241.136719 210.222656 1240.257812 214.148438 1239.1875 218.023438 C 1225.667969 218.023438 1212.136719 218.023438 1198.621094 218.023438 C 1198.449219 214.007812 1198.882812 210.078125 1199.929688 206.242188 Z M 1199.929688 206.242188 " fill-opacity="0.974" fill-rule="evenodd"/><path fill="#002e86" d="M 1329.480469 206.242188 C 1343.875 206.242188 1358.269531 206.242188 1372.660156 206.242188 C 1372.921875 210.195312 1373.367188 214.121094 1373.96875 218.023438 C 1360.007812 218.023438 1346.058594 218.023438 1332.097656 218.023438 C 1331.835938 213.929688 1330.957031 210 1329.480469 206.242188 Z M 1329.480469 206.242188 " fill-opacity="0.967" fill-rule="evenodd"/><path fill="#002683" d="M 871.472656 212.789062 C 885.433594 212.789062 899.382812 212.789062 913.347656 212.789062 C 912.574219 216.226562 912.144531 219.71875 912.039062 223.261719 C 898.519531 223.261719 884.988281 223.261719 871.472656 223.261719 C 871.472656 219.769531 871.472656 216.28125 871.472656 212.789062 Z M 871.472656 212.789062 " fill-opacity="0.99" fill-rule="evenodd"/><path fill="#002683" d="M 1004.949219 212.789062 C 1018.464844 212.789062 1031.996094 212.789062 1045.515625 212.789062 C 1046.679688 216.132812 1047.109375 219.625 1046.824219 223.261719 C 1033.738281 223.261719 1020.652344 223.261719 1007.566406 223.261719 C 1006.582031 219.917969 1005.707031 216.429688 1004.949219 212.789062 Z M 1004.949219 212.789062 " fill-opacity="0.963" fill-rule="evenodd"/><path fill="#003588" d="M 1082.15625 216.714844 C 1096.117188 216.714844 1110.066406 216.714844 1124.03125 216.714844 C 1123.742188 221.53125 1123.296875 226.332031 1122.722656 231.117188 C 1109.203125 231.117188 1095.671875 231.117188 1082.15625 231.117188 C 1082.15625 226.316406 1082.15625 221.515625 1082.15625 216.714844 Z M 1082.15625 216.714844 " fill-opacity="0.974" fill-rule="evenodd"/><path fill="#003588" d="M 486.746094 218.023438 C 542.144531 218.023438 597.539062 218.023438 652.9375 218.023438 C 652.9375 222.824219 652.9375 227.625 652.9375 232.425781 C 597.101562 232.425781 541.269531 232.425781 485.4375 232.425781 C 485.023438 227.355469 485.460938 222.558594 486.746094 218.023438 Z M 486.746094 218.023438 " fill-opacity="0.994" fill-rule="evenodd"/><path fill="#003588" d="M 683.035156 218.023438 C 696.554688 218.023438 710.078125 218.023438 723.601562 218.023438 C 722.394531 222.691406 721.957031 227.492188 722.292969 232.425781 C 709.207031 232.425781 696.121094 232.425781 683.035156 232.425781 C 681.496094 227.644531 681.496094 222.847656 683.035156 218.023438 Z M 683.035156 218.023438 " fill-opacity="0.983" fill-rule="evenodd"/><path fill="#003588" d="M 1198.621094 218.023438 C 1212.136719 218.023438 1225.667969 218.023438 1239.1875 218.023438 C 1239.1875 222.824219 1239.1875 227.625 1239.1875 232.425781 C 1225.667969 232.425781 1212.136719 232.425781 1198.621094 232.425781 C 1198.621094 227.625 1198.621094 222.824219 1198.621094 218.023438 Z M 1198.621094 218.023438 " fill-opacity="0.983" fill-rule="evenodd"/><path fill="#003588" d="M 1332.097656 218.023438 C 1346.058594 218.023438 1360.007812 218.023438 1373.96875 218.023438 C 1373.96875 222.824219 1373.96875 227.625 1373.96875 232.425781 C 1360.453125 232.425781 1346.921875 232.425781 1333.40625 232.425781 C 1333.746094 227.492188 1333.300781 222.691406 1332.097656 218.023438 Z M 1332.097656 218.023438 " fill-opacity="0.981" fill-rule="evenodd"/><path fill="#002984" d="M 871.472656 223.261719 C 884.988281 223.261719 898.519531 223.261719 912.039062 223.261719 C 912.039062 227.1875 912.039062 231.117188 912.039062 235.042969 C 898.519531 235.042969 884.988281 235.042969 871.472656 235.042969 C 871.472656 231.117188 871.472656 227.1875 871.472656 223.261719 Z M 871.472656 223.261719 " fill-opacity="0.988" fill-rule="evenodd"/><path fill="#002984" d="M 1007.566406 223.261719 C 1020.652344 223.261719 1033.738281 223.261719 1046.824219 223.261719 C 1046.824219 227.1875 1046.824219 231.117188 1046.824219 235.042969 C 1033.304688 235.042969 1019.773438 235.042969 1006.257812 235.042969 C 1006.859375 231.140625 1007.304688 227.210938 1007.566406 223.261719 Z M 1007.566406 223.261719 " fill-opacity="0.972" fill-rule="evenodd"/><path fill="#003b8b" d="M 1082.15625 231.117188 C 1095.671875 231.117188 1109.203125 231.117188 1122.722656 231.117188 C 1122.722656 235.914062 1122.722656 240.714844 1122.722656 245.515625 C 1109.203125 245.515625 1095.671875 245.515625 1082.15625 245.515625 C 1082.15625 240.714844 1082.15625 235.914062 1082.15625 231.117188 Z M 1082.15625 231.117188 " fill-opacity="0.984" fill-rule="evenodd"/><path fill="#003a8a" d="M 485.4375 232.425781 C 541.269531 232.425781 597.101562 232.425781 652.9375 232.425781 C 652.9375 234.167969 652.9375 235.914062 652.9375 237.660156 C 610.625 237.660156 568.3125 237.660156 526.003906 237.660156 C 526.472656 241.28125 527.34375 244.773438 528.621094 248.132812 C 515.097656 248.132812 501.578125 248.132812 488.054688 248.132812 C 487.390625 242.816406 486.519531 237.582031 485.4375 232.425781 Z M 485.4375 232.425781 " fill-opacity="0.957" fill-rule="evenodd"/><path fill="#003b8b" d="M 683.035156 232.425781 C 696.121094 232.425781 709.207031 232.425781 722.292969 232.425781 C 723.597656 237.632812 724.90625 242.867188 726.21875 248.132812 C 712.257812 248.132812 698.300781 248.132812 684.34375 248.132812 C 683.332031 242.960938 682.898438 237.722656 683.035156 232.425781 Z M 683.035156 232.425781 " fill-opacity="0.974" fill-rule="evenodd"/><path fill="#003b8b" d="M 1198.621094 232.425781 C 1212.136719 232.425781 1225.667969 232.425781 1239.1875 232.425781 C 1240.089844 237.769531 1241.398438 243.007812 1243.113281 248.132812 C 1228.71875 248.132812 1214.324219 248.132812 1199.929688 248.132812 C 1199.0625 242.941406 1198.621094 237.703125 1198.621094 232.425781 Z M 1198.621094 232.425781 " fill-opacity="0.972" fill-rule="evenodd"/><path fill="#003b8b" d="M 1333.40625 232.425781 C 1346.921875 232.425781 1360.453125 232.425781 1373.96875 232.425781 C 1373.65625 237.800781 1372.78125 243.035156 1371.351562 248.132812 C 1357.390625 248.132812 1343.441406 248.132812 1329.480469 248.132812 C 1330.800781 242.746094 1332.109375 237.511719 1333.40625 232.425781 Z M 1333.40625 232.425781 " fill-opacity="0.969" fill-rule="evenodd"/><path fill="#002e86" d="M 871.472656 235.042969 C 884.988281 235.042969 898.519531 235.042969 912.039062 235.042969 C 913.515625 240.359375 915.269531 245.597656 917.273438 250.75 C 902 250.75 886.742188 250.75 871.472656 250.75 C 871.472656 245.515625 871.472656 240.277344 871.472656 235.042969 Z M 871.472656 235.042969 " fill-opacity="0.985" fill-rule="evenodd"/><path fill="#002e86" d="M 1006.257812 235.042969 C 1019.773438 235.042969 1033.304688 235.042969 1046.824219 235.042969 C 1046.078125 240.308594 1045.199219 245.542969 1044.207031 250.75 C 1030.242188 250.75 1016.292969 250.75 1002.332031 250.75 C 1004.046875 245.625 1005.355469 240.386719 1006.257812 235.042969 Z M 1006.257812 235.042969 " fill-opacity="0.971" fill-rule="evenodd"/><path fill="#00418d" d="M 1082.15625 245.515625 C 1095.671875 245.515625 1109.203125 245.515625 1122.722656 245.515625 C 1122.722656 251.625 1122.722656 257.730469 1122.722656 263.839844 C 1109.203125 263.839844 1095.671875 263.839844 1082.15625 263.839844 C 1082.15625 257.730469 1082.15625 251.625 1082.15625 245.515625 Z M 1082.15625 245.515625 " fill-opacity="0.984" fill-rule="evenodd"/><path fill="#00418d" d="M 488.054688 248.132812 C 501.578125 248.132812 515.097656 248.132812 528.621094 248.132812 C 530.769531 255.058594 534.261719 261.167969 539.089844 266.460938 C 524.257812 266.460938 509.429688 266.460938 494.597656 266.460938 C 491.410156 260.832031 489.230469 254.722656 488.054688 248.132812 Z M 488.054688 248.132812 " fill-opacity="0.967" fill-rule="evenodd"/><path fill="#00418d" d="M 684.34375 248.132812 C 698.300781 248.132812 712.257812 248.132812 726.21875 248.132812 C 729.976562 254.960938 734.777344 261.070312 740.613281 266.460938 C 724.035156 266.460938 707.460938 266.460938 690.886719 266.460938 C 687.921875 260.757812 685.742188 254.648438 684.34375 248.132812 Z M 684.34375 248.132812 " fill-opacity="0.963" fill-rule="evenodd"/><path fill="#00418d" d="M 1199.929688 248.132812 C 1214.324219 248.132812 1228.71875 248.132812 1243.113281 248.132812 C 1246.1875 255.164062 1250.558594 261.273438 1256.199219 266.460938 C 1239.617188 266.460938 1223.050781 266.460938 1206.472656 266.460938 C 1203.773438 260.535156 1201.589844 254.425781 1199.929688 248.132812 Z M 1199.929688 248.132812 " fill-opacity="0.97" fill-rule="evenodd"/><path fill="#00418d" d="M 1329.480469 248.132812 C 1343.441406 248.132812 1357.390625 248.132812 1371.351562 248.132812 C 1370.699219 254.910156 1368.515625 261.015625 1364.8125 266.460938 C 1348.675781 266.460938 1332.527344 266.460938 1316.394531 266.460938 C 1321.300781 260.683594 1325.671875 254.574219 1329.480469 248.132812 Z M 1329.480469 248.132812 " fill-opacity="0.97" fill-rule="evenodd"/><path fill="#003588" d="M 871.472656 250.75 C 886.742188 250.75 902 250.75 917.273438 250.75 C 922.050781 259.449219 928.589844 266.429688 936.902344 271.695312 C 915.085938 271.695312 893.285156 271.695312 871.472656 271.695312 C 871.472656 264.714844 871.472656 257.730469 871.472656 250.75 Z M 871.472656 250.75 " fill-opacity="0.984" fill-rule="evenodd"/><path fill="#003588" d="M 1002.332031 250.75 C 1016.292969 250.75 1030.242188 250.75 1044.207031 250.75 C 1042.84375 258.324219 1040.226562 265.304688 1036.355469 271.695312 C 1018.035156 271.695312 999.714844 271.695312 981.394531 271.695312 C 985.449219 269.1875 989.375 266.351562 993.171875 263.1875 C 996.414062 259.070312 999.464844 254.925781 1002.332031 250.75 Z M 1002.332031 250.75 " fill-opacity="0.964" fill-rule="evenodd"/><path fill="#00438e" d="M 823.054688 267.769531 C 815.632812 267.769531 808.226562 267.769531 800.808594 267.769531 C 803.816406 264.105469 807.089844 260.617188 810.621094 257.296875 C 815.019531 260.609375 819.15625 264.101562 823.054688 267.769531 Z M 823.054688 267.769531 " fill-opacity="0.814" fill-rule="evenodd"/><path fill="#00438e" d="M 629.382812 267.769531 C 622.839844 267.769531 616.296875 267.769531 609.753906 267.769531 C 612.371094 264.925781 614.769531 261.871094 616.949219 258.605469 C 621.066406 261.847656 625.210938 264.902344 629.382812 267.769531 Z M 629.382812 267.769531 " fill-opacity="0.796" fill-rule="evenodd"/><path fill="#004790" d="M 1082.15625 263.839844 C 1095.671875 263.839844 1109.203125 263.839844 1122.722656 263.839844 C 1122.722656 268.640625 1122.722656 273.441406 1122.722656 278.242188 C 1109.203125 278.242188 1095.671875 278.242188 1082.15625 278.242188 C 1082.15625 273.441406 1082.15625 268.640625 1082.15625 263.839844 Z M 1082.15625 263.839844 " fill-opacity="0.984" fill-rule="evenodd"/><path fill="#00448f" d="M 1206.472656 266.460938 C 1223.050781 266.460938 1239.617188 266.460938 1256.199219 266.460938 C 1258.199219 266.363281 1259.507812 267.238281 1260.125 269.078125 C 1242.746094 267.816406 1225.289062 267.378906 1207.78125 267.769531 C 1206.902344 267.769531 1206.472656 267.332031 1206.472656 266.460938 Z M 1206.472656 266.460938 " fill-opacity="0.927" fill-rule="evenodd"/><path fill="#00448f" d="M 1316.394531 266.460938 C 1332.527344 266.460938 1348.675781 266.460938 1364.8125 266.460938 C 1364.8125 266.894531 1364.8125 267.332031 1364.8125 267.769531 C 1347.300781 267.378906 1329.84375 267.816406 1312.46875 269.078125 C 1313.082031 267.238281 1314.390625 266.363281 1316.394531 266.460938 Z M 1316.394531 266.460938 " fill-opacity="0.953" fill-rule="evenodd"/><path fill="#004790" d="M 494.597656 266.460938 C 509.429688 266.460938 524.257812 266.460938 539.089844 266.460938 C 547.339844 273.636719 556.9375 278 567.878906 279.550781 C 546.296875 280.855469 524.488281 281.289062 502.449219 280.859375 C 498.839844 276.699219 496.222656 271.898438 494.597656 266.460938 Z M 494.597656 266.460938 " fill-opacity="0.957" fill-rule="evenodd"/><path fill="#004890" d="M 609.753906 267.769531 C 616.296875 267.769531 622.839844 267.769531 629.382812 267.769531 C 633.976562 271.261719 638.777344 274.535156 643.777344 277.585938 C 644.761719 278.464844 645.199219 279.554688 645.085938 280.859375 C 622.609375 281.289062 600.363281 280.855469 578.347656 279.550781 C 589.945312 278.546875 600.414062 274.617188 609.753906 267.769531 Z M 609.753906 267.769531 " fill-opacity="0.939" fill-rule="evenodd"/><path fill="#004890" d="M 690.886719 266.460938 C 707.460938 266.460938 724.035156 266.460938 740.613281 266.460938 C 760.414062 278.171875 780.472656 278.609375 800.808594 267.769531 C 808.226562 267.769531 815.632812 267.769531 823.054688 267.769531 C 829.230469 271.089844 834.898438 275.234375 840.066406 280.203125 C 839.765625 280.726562 839.332031 280.945312 838.757812 280.859375 C 792.078125 280.859375 745.410156 280.859375 698.738281 280.859375 C 695.109375 276.652344 692.492188 271.851562 690.886719 266.460938 Z M 690.886719 266.460938 " fill-opacity="0.962" fill-rule="evenodd"/><path fill="#004790" d="M 1207.78125 267.769531 C 1225.289062 267.378906 1242.746094 267.816406 1260.125 269.078125 C 1277.527344 277.796875 1294.972656 277.796875 1312.46875 269.078125 C 1329.84375 267.816406 1347.300781 267.378906 1364.8125 267.769531 C 1362.835938 272.613281 1360.21875 276.976562 1356.960938 280.859375 C 1309.71875 279.117188 1262.609375 279.117188 1215.632812 280.859375 C 1211.707031 277.375 1209.089844 273.011719 1207.78125 267.769531 Z M 1207.78125 267.769531 " fill-opacity="0.962" fill-rule="evenodd"/><path fill="#003b8b" d="M 871.472656 271.695312 C 893.285156 271.695312 915.085938 271.695312 936.902344 271.695312 C 951.726562 276.929688 966.566406 276.929688 981.394531 271.695312 C 999.714844 271.695312 1018.035156 271.695312 1036.355469 271.695312 C 1032.585938 279.820312 1027.351562 286.800781 1020.652344 292.640625 C 984.886719 292.640625 949.109375 292.640625 913.347656 292.640625 C 912.914062 292.640625 912.46875 292.640625 912.039062 292.640625 C 898.519531 292.640625 884.988281 292.640625 871.472656 292.640625 C 871.472656 285.660156 871.472656 278.675781 871.472656 271.695312 Z M 871.472656 271.695312 " fill-opacity="0.985" fill-rule="evenodd"/><path fill="#00652d" d="M 39.207031 278.242188 C 52.730469 278.242188 66.253906 278.242188 79.773438 278.242188 C 79.773438 314.894531 79.773438 351.546875 79.773438 388.199219 C 101.585938 388.199219 123.394531 388.199219 145.203125 388.199219 C 145.203125 400.851562 145.203125 413.507812 145.203125 426.160156 C 109.871094 426.160156 74.539062 426.160156 39.207031 426.160156 C 39.207031 376.851562 39.207031 327.546875 39.207031 278.242188 Z M 39.207031 278.242188 " fill-opacity="0.977" fill-rule="evenodd"/><path fill="#00652d" d="M 374.207031 278.242188 C 388.164062 278.242188 402.125 278.242188 416.082031 278.242188 C 416.082031 327.546875 416.082031 376.851562 416.082031 426.160156 C 380.3125 426.160156 344.546875 426.160156 308.777344 426.160156 C 308.777344 413.507812 308.777344 400.851562 308.777344 388.199219 C 330.589844 388.199219 352.398438 388.199219 374.207031 388.199219 C 374.207031 351.546875 374.207031 314.894531 374.207031 278.242188 Z M 374.207031 278.242188 " fill-opacity="0.978" fill-rule="evenodd"/><path fill="#004e93" d="M 1082.15625 278.242188 C 1095.671875 278.242188 1109.203125 278.242188 1122.722656 278.242188 C 1122.722656 285.222656 1122.722656 292.203125 1122.722656 299.183594 C 1109.203125 299.183594 1095.671875 299.183594 1082.15625 299.183594 C 1082.15625 292.203125 1082.15625 285.222656 1082.15625 278.242188 Z M 1082.15625 278.242188 " fill-opacity="0.984" fill-rule="evenodd"/><path fill="#004d93" d="M 567.878906 279.550781 C 571.367188 279.550781 574.855469 279.550781 578.347656 279.550781 C 600.363281 280.855469 622.609375 281.289062 645.085938 280.859375 C 638.828125 289.65625 630.976562 296.636719 621.53125 301.804688 C 589.25 301.804688 556.972656 301.804688 524.695312 301.804688 C 515.597656 296.628906 508.179688 289.648438 502.449219 280.859375 C 524.488281 281.289062 546.296875 280.855469 567.878906 279.550781 Z M 567.878906 279.550781 " fill-opacity="0.98" fill-rule="evenodd"/><path fill="#004d93" d="M 1356.960938 280.859375 C 1351.121094 290.1875 1343.269531 297.167969 1333.40625 301.804688 C 1301.566406 301.804688 1269.714844 301.804688 1237.878906 301.804688 C 1228.78125 296.628906 1221.363281 289.648438 1215.632812 280.859375 C 1262.609375 279.117188 1309.71875 279.117188 1356.960938 280.859375 Z M 1356.960938 280.859375 " fill-opacity="0.984" fill-rule="evenodd"/><path fill="#004d93" d="M 698.738281 280.859375 C 745.410156 280.859375 792.078125 280.859375 838.757812 280.859375 C 833 289.675781 825.578125 296.660156 816.511719 301.804688 C 785.105469 301.804688 753.699219 301.804688 722.292969 301.804688 C 712.421875 297.167969 704.570312 290.1875 698.738281 280.859375 Z M 698.738281 280.859375 " fill-opacity="0.982" fill-rule="evenodd"/><path fill="#00418d" d="M 871.472656 292.640625 C 884.988281 292.640625 898.519531 292.640625 912.039062 292.640625 C 912.039062 301.367188 912.039062 310.09375 912.039062 318.820312 C 898.519531 318.820312 884.988281 318.820312 871.472656 318.820312 C 871.472656 310.09375 871.472656 301.367188 871.472656 292.640625 Z M 871.472656 292.640625 " fill-opacity="0.984" fill-rule="evenodd"/><path fill="#00408d" d="M 913.347656 292.640625 C 949.109375 292.640625 984.886719 292.640625 1020.652344 292.640625 C 1012.144531 301.925781 1001.675781 308.253906 989.246094 311.621094 C 964.878906 318.320312 942.1875 314.828125 921.199219 301.148438 C 918.304688 298.480469 915.6875 295.644531 913.347656 292.640625 Z M 913.347656 292.640625 " fill-opacity="0.954" fill-rule="evenodd"/><path fill="#005295" d="M 1082.15625 299.183594 C 1095.671875 299.183594 1109.203125 299.183594 1122.722656 299.183594 C 1122.722656 301.367188 1122.722656 303.546875 1122.722656 305.730469 C 1109.203125 305.730469 1095.671875 305.730469 1082.15625 305.730469 C 1082.15625 303.546875 1082.15625 301.367188 1082.15625 299.183594 Z M 1082.15625 299.183594 " fill-opacity="0.984" fill-rule="evenodd"/><path fill="#005295" d="M 524.695312 301.804688 C 556.972656 301.804688 589.25 301.804688 621.53125 301.804688 C 616.710938 305.085938 611.476562 307.703125 605.828125 309.65625 C 584.015625 307.910156 562.207031 307.910156 540.398438 309.65625 C 534.746094 307.703125 529.511719 305.085938 524.695312 301.804688 Z M 524.695312 301.804688 " fill-opacity="0.961" fill-rule="evenodd"/><path fill="#005295" d="M 722.292969 301.804688 C 753.699219 301.804688 785.105469 301.804688 816.511719 301.804688 C 812.347656 305.414062 807.546875 308.035156 802.117188 309.65625 C 780.300781 307.910156 758.496094 307.910156 736.6875 309.65625 C 731.253906 308.035156 726.457031 305.414062 722.292969 301.804688 Z M 722.292969 301.804688 " fill-opacity="0.957" fill-rule="evenodd"/><path fill="#005295" d="M 1237.878906 301.804688 C 1269.714844 301.804688 1301.566406 301.804688 1333.40625 301.804688 C 1329.242188 305.414062 1324.441406 308.035156 1319.011719 309.65625 C 1297.195312 307.910156 1275.394531 307.910156 1253.582031 309.65625 C 1247.941406 307.707031 1242.707031 305.089844 1237.878906 301.804688 Z M 1237.878906 301.804688 " fill-opacity="0.96" fill-rule="evenodd"/><path fill="#005496" d="M 1082.15625 305.730469 C 1095.671875 305.730469 1109.203125 305.730469 1122.722656 305.730469 C 1122.722656 307.910156 1122.722656 310.09375 1122.722656 312.273438 C 1109.203125 312.273438 1095.671875 312.273438 1082.15625 312.273438 C 1082.15625 310.09375 1082.15625 307.910156 1082.15625 305.730469 Z M 1082.15625 305.730469 " fill-opacity="0.837" fill-rule="evenodd"/><path fill="#005495" d="M 540.398438 309.65625 C 562.207031 307.910156 584.015625 307.910156 605.828125 309.65625 C 584.015625 316.636719 562.207031 316.636719 540.398438 309.65625 Z M 540.398438 309.65625 " fill-opacity="0.797" fill-rule="evenodd"/><path fill="#005495" d="M 736.6875 309.65625 C 758.496094 307.910156 780.300781 307.910156 802.117188 309.65625 C 780.316406 316.597656 758.503906 316.597656 736.6875 309.65625 Z M 736.6875 309.65625 " fill-opacity="0.824" fill-rule="evenodd"/><path fill="#005495" d="M 1253.582031 309.65625 C 1275.394531 307.910156 1297.195312 307.910156 1319.011719 309.65625 C 1297.195312 316.636719 1275.394531 316.636719 1253.582031 309.65625 Z M 1253.582031 309.65625 " fill-opacity="0.822" fill-rule="evenodd"/><path fill="#00448f" d="M 871.472656 318.820312 C 884.988281 318.820312 898.519531 318.820312 912.039062 318.820312 C 912.039062 319.691406 912.039062 320.566406 912.039062 321.4375 C 898.519531 321.4375 884.988281 321.4375 871.472656 321.4375 C 871.472656 320.566406 871.472656 319.691406 871.472656 318.820312 Z M 871.472656 318.820312 " fill-opacity="0.984" fill-rule="evenodd"/><path fill="#004790" d="M 871.472656 321.4375 C 884.988281 321.4375 898.519531 321.4375 912.039062 321.4375 C 912.039062 327.109375 912.039062 332.785156 912.039062 338.457031 C 898.519531 338.457031 884.988281 338.457031 871.472656 338.457031 C 871.472656 332.785156 871.472656 327.109375 871.472656 321.4375 Z M 871.472656 321.4375 " fill-opacity="0.984" fill-rule="evenodd"/><path fill="#004d93" d="M 871.472656 338.457031 C 884.988281 338.457031 898.519531 338.457031 912.039062 338.457031 C 912.039062 348.492188 912.039062 358.527344 912.039062 368.5625 C 898.519531 368.5625 884.988281 368.5625 871.472656 368.5625 C 871.472656 358.527344 871.472656 348.492188 871.472656 338.457031 Z M 871.472656 338.457031 " fill-opacity="0.984" fill-rule="evenodd"/><path fill="#00652d" d="M 956.53125 341.074219 C 959.148438 341.074219 961.765625 341.074219 964.382812 341.074219 C 964.382812 351.546875 964.382812 362.019531 964.382812 372.492188 C 961.765625 372.492188 959.148438 372.492188 956.53125 372.492188 C 956.53125 362.019531 956.53125 351.546875 956.53125 341.074219 Z M 956.53125 341.074219 " fill-opacity="0.776" fill-rule="evenodd"/><path fill="#00652d" d="M 1154.128906 341.074219 C 1156.351562 340.863281 1158.539062 341.082031 1160.671875 341.726562 C 1162.621094 346.757812 1160.878906 348.5 1155.4375 346.964844 C 1154.285156 345.1875 1153.851562 343.226562 1154.128906 341.074219 Z M 1154.128906 341.074219 " fill-opacity="0.718" fill-rule="evenodd"/><path fill="#00652d" d="M 1185.535156 341.074219 C 1193.609375 341.640625 1193.828125 343.824219 1186.1875 347.617188 C 1185.101562 347.398438 1184.003906 347.183594 1182.917969 346.964844 C 1184.328125 345.222656 1185.207031 343.257812 1185.535156 341.074219 Z M 1185.535156 341.074219 " fill-opacity="0.63" fill-rule="evenodd"/><path fill="#00652d" d="M 1265.359375 341.074219 C 1272.332031 341.074219 1279.320312 341.074219 1286.296875 341.074219 C 1287.445312 346.296875 1285.707031 350.003906 1281.0625 352.199219 C 1289.148438 358.210938 1289.578125 364.757812 1282.371094 371.835938 C 1275.460938 374.859375 1269.347656 373.769531 1264.050781 368.5625 C 1264.753906 366.929688 1265.632812 365.402344 1266.667969 363.980469 C 1269.074219 364.738281 1271.691406 365.394531 1274.519531 365.945312 C 1280.484375 365.515625 1281.792969 363.117188 1278.445312 358.746094 C 1275.421875 358.09375 1272.371094 357.878906 1269.285156 358.089844 C 1269.0625 353.285156 1271.234375 350.015625 1275.828125 348.273438 C 1272.359375 347.621094 1268.878906 347.402344 1265.359375 347.617188 C 1265.359375 345.4375 1265.359375 343.253906 1265.359375 341.074219 Z M 1265.359375 341.074219 " fill-opacity="0.815" fill-rule="evenodd"/><path fill="#00652d" d="M 1300.691406 341.074219 C 1308.449219 340.273438 1315.871094 341.363281 1322.9375 344.347656 C 1330.304688 353.535156 1329.859375 362.261719 1321.628906 370.527344 C 1314.808594 372.355469 1307.835938 373.011719 1300.691406 372.492188 C 1300.691406 362.019531 1300.691406 351.546875 1300.691406 341.074219 Z M 1307.234375 347.617188 C 1315.1875 346.53125 1319.992188 349.804688 1321.628906 357.4375 C 1319.613281 364.894531 1314.808594 367.730469 1307.234375 365.945312 C 1307.234375 359.835938 1307.234375 353.726562 1307.234375 347.617188 Z M 1307.234375 347.617188 " fill-opacity="0.882" fill-rule="evenodd"/><path fill="#00652d" d="M 977.46875 350.238281 C 988.027344 350.769531 998.496094 350.988281 1008.875 350.890625 C 1010.445312 352.074219 1011.53125 353.601562 1012.144531 355.472656 C 1012.800781 361.128906 1013.023438 366.800781 1012.800781 372.492188 C 1010.613281 372.492188 1008.441406 372.492188 1006.257812 372.492188 C 1006.480469 368.105469 1006.257812 363.742188 1005.601562 359.398438 C 1003.691406 355.546875 1001.507812 355.113281 999.058594 358.089844 C 998.40625 362.871094 998.183594 367.671875 998.40625 372.492188 C 996.21875 372.492188 994.046875 372.492188 991.863281 372.492188 C 992.085938 367.671875 991.863281 362.871094 991.207031 358.089844 C 989.992188 355.6875 988.472656 355.253906 986.628906 356.78125 C 985.332031 361.945312 984.902344 367.183594 985.320312 372.492188 C 982.703125 372.492188 980.085938 372.492188 977.46875 372.492188 C 977.46875 365.070312 977.46875 357.65625 977.46875 350.238281 Z M 977.46875 350.238281 " fill-opacity="0.835" fill-rule="evenodd"/><path fill="#00652d" d="M 1027.195312 350.238281 C 1032.675781 350.824219 1038.355469 351.039062 1044.207031 350.890625 C 1052.304688 357.339844 1052.738281 364.320312 1045.515625 371.835938 C 1043.550781 372.492188 1041.589844 373.144531 1039.625 373.800781 C 1037.742188 372.949219 1035.777344 372.515625 1033.738281 372.492188 C 1033.738281 375.542969 1033.738281 378.597656 1033.738281 381.652344 C 1031.550781 381.652344 1029.378906 381.652344 1027.195312 381.652344 C 1027.195312 371.179688 1027.195312 360.710938 1027.195312 350.238281 Z M 1035.046875 356.78125 C 1041.824219 355.480469 1044.21875 358.101562 1042.242188 364.636719 C 1039.625 368.128906 1037.007812 368.128906 1034.390625 364.636719 C 1033.75 361.960938 1033.972656 359.339844 1035.046875 356.78125 Z M 1035.046875 356.78125 " fill-opacity="0.857" fill-rule="evenodd"/><path fill="#00652d" d="M 1062.527344 350.238281 C 1067.523438 351.027344 1072.3125 351.027344 1076.921875 350.238281 C 1076.921875 352.417969 1076.921875 354.601562 1076.921875 356.78125 C 1074.449219 356.515625 1072.484375 357.386719 1071.03125 359.398438 C 1070.378906 363.742188 1070.15625 368.105469 1070.378906 372.492188 C 1067.761719 372.492188 1065.144531 372.492188 1062.527344 372.492188 C 1062.527344 365.070312 1062.527344 357.65625 1062.527344 350.238281 Z M 1062.527344 350.238281 " fill-opacity="0.769" fill-rule="evenodd"/><path fill="#00652d" d="M 1093.933594 350.238281 C 1105.042969 347.910156 1110.277344 352.273438 1109.636719 363.328125 C 1104.753906 362.90625 1099.964844 363.339844 1095.242188 364.636719 C 1098.289062 367.890625 1101.5625 367.890625 1105.054688 364.636719 C 1106.585938 366.164062 1108.105469 367.691406 1109.636719 369.21875 C 1098.34375 377.164062 1090.933594 374.546875 1087.390625 361.363281 C 1088.121094 356.613281 1090.292969 352.90625 1093.933594 350.238281 Z M 1096.550781 355.472656 C 1099.375 354.96875 1101.5625 355.84375 1103.09375 358.089844 C 1100.476562 359.835938 1097.859375 359.835938 1095.242188 358.089844 C 1095.710938 357.195312 1096.15625 356.324219 1096.550781 355.472656 Z M 1096.550781 355.472656 " fill-opacity="0.822" fill-rule="evenodd"/><path fill="#00652d" d="M 1125.339844 350.238281 C 1130.675781 349.640625 1135.703125 350.511719 1140.386719 352.855469 C 1140.792969 355.332031 1139.707031 357.078125 1137.117188 358.089844 C 1134.785156 355.542969 1132.167969 355.105469 1129.265625 356.78125 C 1133.503906 358.117188 1137.21875 360.300781 1140.386719 363.328125 C 1141.75 370.046875 1138.921875 373.539062 1131.882812 373.800781 C 1128.097656 373.632812 1124.828125 372.324219 1122.066406 369.871094 C 1122.238281 365.3125 1124.199219 364.222656 1127.957031 366.601562 C 1130.140625 367.472656 1132.3125 367.472656 1134.5 366.601562 C 1130.730469 364.820312 1127.027344 362.859375 1123.375 360.710938 C 1122.210938 356.785156 1122.863281 353.292969 1125.339844 350.238281 Z M 1125.339844 350.238281 " fill-opacity="0.786" fill-rule="evenodd"/><path fill="#00652d" d="M 1154.128906 350.238281 C 1156.3125 350.238281 1158.484375 350.238281 1160.671875 350.238281 C 1160.671875 357.65625 1160.671875 365.070312 1160.671875 372.492188 C 1158.484375 372.492188 1156.3125 372.492188 1154.128906 372.492188 C 1154.128906 365.070312 1154.128906 357.65625 1154.128906 350.238281 Z M 1154.128906 350.238281 " fill-opacity="0.873" fill-rule="evenodd"/><path fill="#00652d" d="M 1180.300781 350.238281 C 1196.082031 349.226562 1200.882812 355.988281 1194.695312 370.527344 C 1184.003906 375.835938 1177.015625 372.78125 1173.757812 361.363281 C 1174.488281 356.613281 1176.660156 352.90625 1180.300781 350.238281 Z M 1182.917969 356.78125 C 1189.238281 355.917969 1191.632812 358.535156 1190.113281 364.636719 C 1187.496094 368.128906 1184.878906 368.128906 1182.261719 364.636719 C 1181.371094 361.890625 1181.59375 359.273438 1182.917969 356.78125 Z M 1182.917969 356.78125 " fill-opacity="0.826" fill-rule="evenodd"/><path fill="#00652d" d="M 1210.398438 350.238281 C 1214.714844 351.09375 1218.863281 351.09375 1222.828125 350.238281 C 1225.640625 350.101562 1228.035156 350.972656 1230.027344 352.855469 C 1231.269531 359.316406 1231.699219 365.859375 1231.335938 372.492188 C 1229.148438 372.492188 1226.976562 372.492188 1224.792969 372.492188 C 1225.210938 367.183594 1224.777344 361.945312 1223.484375 356.78125 C 1220.460938 354.90625 1218.496094 355.777344 1217.59375 359.398438 C 1216.941406 363.742188 1216.71875 368.105469 1216.941406 372.492188 C 1214.753906 372.492188 1212.582031 372.492188 1210.398438 372.492188 C 1210.398438 365.070312 1210.398438 357.65625 1210.398438 350.238281 Z M 1210.398438 350.238281 " fill-opacity="0.864" fill-rule="evenodd"/><path fill="#005295" d="M 871.472656 368.5625 C 884.988281 368.5625 898.519531 368.5625 912.039062 368.5625 C 912.039062 372.054688 912.039062 375.542969 912.039062 379.035156 C 898.519531 379.035156 884.988281 379.035156 871.472656 379.035156 C 871.472656 375.542969 871.472656 372.054688 871.472656 368.5625 Z M 871.472656 368.5625 " fill-opacity="0.984" fill-rule="evenodd"/><path fill="#005495" d="M 871.472656 379.035156 C 884.988281 379.035156 898.519531 379.035156 912.039062 379.035156 C 912.039062 381.652344 912.039062 384.273438 912.039062 386.890625 C 898.519531 386.890625 884.988281 386.890625 871.472656 386.890625 C 871.472656 384.273438 871.472656 381.652344 871.472656 379.035156 Z M 871.472656 379.035156 " fill-opacity="0.984" fill-rule="evenodd"/></svg>