<?xml version="1.0" encoding="UTF-8"?>
<!DOCTYPE svg PUBLIC "-//W3C//DTD SVG 1.1//EN" "http://www.w3.org/Graphics/SVG/1.1/DTD/svg11.dtd">
<svg xmlns="http://www.w3.org/2000/svg" version="1.1" width="1920px" height="1080px" style="shape-rendering:geometricPrecision; text-rendering:geometricPrecision; image-rendering:optimizeQuality; fill-rule:evenodd; clip-rule:evenodd" xmlns:xlink="http://www.w3.org/1999/xlink">
<g><path style="opacity:0.979" fill="#00652d" d="M 447.5,389.5 C 474.5,389.5 501.5,389.5 528.5,389.5C 528.5,399.167 528.5,408.833 528.5,418.5C 511.833,418.5 495.167,418.5 478.5,418.5C 478.5,448.833 478.5,479.167 478.5,509.5C 468.167,509.5 457.833,509.5 447.5,509.5C 447.5,469.5 447.5,429.5 447.5,389.5 Z"/></g>
<g><path style="opacity:0.979" fill="#00652d" d="M 653.5,389.5 C 680.833,389.5 708.167,389.5 735.5,389.5C 735.5,429.5 735.5,469.5 735.5,509.5C 724.833,509.5 714.167,509.5 703.5,509.5C 703.5,479.167 703.5,448.833 703.5,418.5C 686.833,418.5 670.167,418.5 653.5,418.5C 653.5,408.833 653.5,399.167 653.5,389.5 Z"/></g>
<g><path style="opacity:0.969" fill="#001681" d="M 565.5,423.5 C 581.837,423.333 598.17,423.5 614.5,424C 617.573,424.739 619.74,426.572 621,429.5C 621.499,433.486 621.666,437.486 621.5,441.5C 642.167,441.5 662.833,441.5 683.5,441.5C 683.5,437.167 683.5,432.833 683.5,428.5C 687.833,428.5 692.167,428.5 696.5,428.5C 696.5,448.5 696.5,468.5 696.5,488.5C 692.167,488.5 687.833,488.5 683.5,488.5C 683.5,483.833 683.5,479.167 683.5,474.5C 662.833,474.5 642.167,474.5 621.5,474.5C 621.866,479.705 621.033,484.705 619,489.5C 617.981,490.687 616.814,491.687 615.5,492.5C 614.596,498.057 612.263,502.89 608.5,507C 605.518,507.498 602.518,507.665 599.5,507.5C 599.823,511.226 599.489,514.893 598.5,518.5C 595.833,519.833 593.167,521.167 590.5,522.5C 587.749,520.707 584.916,519.041 582,517.5C 581.502,514.183 581.335,510.85 581.5,507.5C 577.818,507.665 574.152,507.499 570.5,507C 567.425,503.182 565.425,498.848 564.5,494C 559.102,488.637 557.102,482.137 558.5,474.5C 539.167,474.5 519.833,474.5 500.5,474.5C 500.5,479.167 500.5,483.833 500.5,488.5C 496.167,488.5 491.833,488.5 487.5,488.5C 487.5,468.5 487.5,448.5 487.5,428.5C 491.833,428.5 496.167,428.5 500.5,428.5C 500.5,432.833 500.5,437.167 500.5,441.5C 519.833,441.5 539.167,441.5 558.5,441.5C 558.334,437.154 558.501,432.821 559,428.5C 560.563,425.977 562.73,424.31 565.5,423.5 Z"/></g>
<g><path style="opacity:0.908" fill="#00177e" d="M 1432.5,476.5 C 1410.83,476.5 1389.17,476.5 1367.5,476.5C 1389.18,465.88 1410.84,465.88 1432.5,476.5 Z"/></g>
<g><path style="opacity:0.934" fill="#00177e" d="M 884.5,476.5 C 863.5,477.833 842.5,477.833 821.5,476.5C 837.504,469.421 854.171,467.588 871.5,471C 876.22,472.176 880.554,474.01 884.5,476.5 Z"/></g>
<g><path style="opacity:0.938" fill="#00177e" d="M 1037.5,476.5 C 1016.17,477.833 994.833,477.833 973.5,476.5C 983.386,471.121 994.052,468.788 1005.5,469.5C 1016.87,468.774 1027.54,471.108 1037.5,476.5 Z"/></g>
<g><path style="opacity:0.94" fill="#00177e" d="M 1190.5,480.5 C 1167.5,480.5 1144.5,480.5 1121.5,480.5C 1131.14,472.622 1142.31,468.955 1155,469.5C 1168.15,469.275 1179.99,472.942 1190.5,480.5 Z"/></g>
<g><path style="opacity:0.913" fill="#00177e" d="M 1321.5,477.5 C 1311.83,477.5 1302.17,477.5 1292.5,477.5C 1301.25,471.894 1310.91,469.227 1321.5,469.5C 1321.5,472.167 1321.5,474.833 1321.5,477.5 Z"/></g>
<g><path style="opacity:0.956" fill="#00177e" d="M 1114.5,480.5 C 1104.17,480.5 1093.83,480.5 1083.5,480.5C 1083.5,477.5 1083.5,474.5 1083.5,471.5C 1093.83,471.5 1104.17,471.5 1114.5,471.5C 1114.5,474.5 1114.5,477.5 1114.5,480.5 Z"/></g>
<g><path style="opacity:0.943" fill="#00177e" d="M 1275.5,477.5 C 1265.17,477.5 1254.83,477.5 1244.5,477.5C 1244.5,475.5 1244.5,473.5 1244.5,471.5C 1254.83,471.5 1265.17,471.5 1275.5,471.5C 1275.5,473.5 1275.5,475.5 1275.5,477.5 Z"/></g>
<g><path style="opacity:0.972" fill="#001b7e" d="M 821.5,476.5 C 842.5,477.833 863.5,477.833 884.5,476.5C 894.5,481.833 902.167,489.5 907.5,499.5C 895.833,499.5 884.167,499.5 872.5,499.5C 859.846,492.835 847.179,492.835 834.5,499.5C 822.5,499.5 810.5,499.5 798.5,499.5C 803.812,489.521 811.479,481.855 821.5,476.5 Z"/></g>
<g><path style="opacity:0.979" fill="#001b7e" d="M 973.5,476.5 C 994.833,477.833 1016.17,477.833 1037.5,476.5C 1046.28,481.387 1053.61,487.887 1059.5,496C 1057.8,497.176 1056.14,498.343 1054.5,499.5C 1041.83,499.5 1029.17,499.5 1016.5,499.5C 1010.17,498.167 1003.83,498.167 997.5,499.5C 981.167,499.5 964.833,499.5 948.5,499.5C 954.623,489.375 962.957,481.708 973.5,476.5 Z"/></g>
<g><path style="opacity:0.98" fill="#001b7e" d="M 1367.5,476.5 C 1389.17,476.5 1410.83,476.5 1432.5,476.5C 1443.72,481.051 1452.05,488.717 1457.5,499.5C 1441.5,499.5 1425.5,499.5 1409.5,499.5C 1403.49,498.26 1397.49,498.26 1391.5,499.5C 1375.32,499.83 1359.32,499.496 1343.5,498.5C 1349.27,488.728 1357.27,481.395 1367.5,476.5 Z"/></g>
<g><path style="opacity:0.979" fill="#001b7e" d="M 1244.5,477.5 C 1254.83,477.5 1265.17,477.5 1275.5,477.5C 1275.33,482.511 1275.5,487.511 1276,492.5C 1280.44,486.22 1285.94,481.22 1292.5,477.5C 1302.17,477.5 1311.83,477.5 1321.5,477.5C 1321.5,484.5 1321.5,491.5 1321.5,498.5C 1317.53,499.162 1313.53,499.495 1309.5,499.5C 1287.83,499.5 1266.17,499.5 1244.5,499.5C 1244.5,492.167 1244.5,484.833 1244.5,477.5 Z"/></g>
<g><path style="opacity:0.983" fill="#001a7e" d="M 1083.5,480.5 C 1093.83,480.5 1104.17,480.5 1114.5,480.5C 1114.34,482.527 1114.5,484.527 1115,486.5C 1117.04,484.294 1119.2,482.294 1121.5,480.5C 1144.5,480.5 1167.5,480.5 1190.5,480.5C 1201.57,488.246 1209.24,498.579 1213.5,511.5C 1202.09,511.189 1190.75,511.523 1179.5,512.5C 1164.93,497.351 1148.26,494.851 1129.5,505C 1126.96,507.705 1124.3,510.205 1121.5,512.5C 1109.01,511.505 1096.34,511.171 1083.5,511.5C 1083.5,501.167 1083.5,490.833 1083.5,480.5 Z"/></g>
<g><path style="opacity:0.955" fill="#002181" d="M 1343.5,498.5 C 1359.32,499.496 1375.32,499.83 1391.5,499.5C 1384.61,501.615 1378.61,505.282 1373.5,510.5C 1362.01,509.505 1350.35,509.172 1338.5,509.5C 1339.38,505.418 1341.04,501.751 1343.5,498.5 Z"/></g>
<g><path style="opacity:0.962" fill="#002181" d="M 798.5,499.5 C 810.5,499.5 822.5,499.5 834.5,499.5C 830.475,502.558 827.142,506.225 824.5,510.5C 814.347,509.506 804.014,509.172 793.5,509.5C 794.659,505.849 796.326,502.515 798.5,499.5 Z"/></g>
<g><path style="opacity:0.965" fill="#002181" d="M 872.5,499.5 C 884.167,499.5 895.833,499.5 907.5,499.5C 909.677,502.52 911.343,505.853 912.5,509.5C 902.319,509.173 892.319,509.506 882.5,510.5C 879.858,506.225 876.525,502.558 872.5,499.5 Z"/></g>
<g><path style="opacity:0.96" fill="#002181" d="M 948.5,499.5 C 964.833,499.5 981.167,499.5 997.5,499.5C 990.459,501.857 984.126,505.523 978.5,510.5C 967.012,509.505 955.345,509.172 943.5,509.5C 945.167,506.167 946.833,502.833 948.5,499.5 Z"/></g>
<g><path style="opacity:0.91" fill="#002181" d="M 1016.5,499.5 C 1029.17,499.5 1041.83,499.5 1054.5,499.5C 1049.87,503.156 1045.21,506.822 1040.5,510.5C 1038.5,509.167 1036.5,509.167 1034.5,510.5C 1029.4,505.287 1023.4,501.62 1016.5,499.5 Z"/></g>
<g><path style="opacity:0.97" fill="#002181" d="M 1244.5,499.5 C 1266.17,499.5 1287.83,499.5 1309.5,499.5C 1301.48,501.174 1294.15,504.507 1287.5,509.5C 1273.17,509.5 1258.83,509.5 1244.5,509.5C 1244.5,506.167 1244.5,502.833 1244.5,499.5 Z"/></g>
<g><path style="opacity:0.96" fill="#002181" d="M 1409.5,499.5 C 1425.5,499.5 1441.5,499.5 1457.5,499.5C 1459.67,502.515 1461.34,505.849 1462.5,509.5C 1450.65,509.172 1438.99,509.505 1427.5,510.5C 1422.39,505.282 1416.39,501.615 1409.5,499.5 Z"/></g>
<g><path style="opacity:0.968" fill="#002683" d="M 793.5,509.5 C 804.014,509.172 814.347,509.506 824.5,510.5C 824.107,512.284 823.441,513.95 822.5,515.5C 812.167,515.5 801.833,515.5 791.5,515.5C 791.971,513.421 792.637,511.421 793.5,509.5 Z"/></g>
<g><path style="opacity:0.971" fill="#002683" d="M 912.5,509.5 C 912.971,511.579 913.637,513.579 914.5,515.5C 904.5,515.5 894.5,515.5 884.5,515.5C 883.559,513.95 882.893,512.284 882.5,510.5C 892.319,509.506 902.319,509.173 912.5,509.5 Z"/></g>
<g><path style="opacity:0.978" fill="#002683" d="M 943.5,509.5 C 955.345,509.172 967.012,509.505 978.5,510.5C 977.752,512.332 976.752,513.999 975.5,515.5C 964.321,515.828 953.321,515.495 942.5,514.5C 942.629,512.784 942.962,511.117 943.5,509.5 Z"/></g>
<g><path style="opacity:0.732" fill="#002583" d="M 1040.5,510.5 C 1038.3,514.114 1036.3,514.114 1034.5,510.5C 1036.5,509.167 1038.5,509.167 1040.5,510.5 Z"/></g>
<g><path style="opacity:0.969" fill="#002683" d="M 1244.5,509.5 C 1258.83,509.5 1273.17,509.5 1287.5,509.5C 1286.17,511.5 1284.5,513.167 1282.5,514.5C 1269.83,514.5 1257.17,514.5 1244.5,514.5C 1244.5,512.833 1244.5,511.167 1244.5,509.5 Z"/></g>
<g><path style="opacity:0.972" fill="#002683" d="M 1338.5,509.5 C 1350.35,509.172 1362.01,509.505 1373.5,510.5C 1372.14,512.191 1370.8,513.858 1369.5,515.5C 1358.32,515.828 1347.32,515.495 1336.5,514.5C 1336.4,512.447 1337.07,510.78 1338.5,509.5 Z"/></g>
<g><path style="opacity:0.974" fill="#002683" d="M 1462.5,509.5 C 1463.73,511.297 1464.4,513.297 1464.5,515.5C 1453.17,515.5 1441.83,515.5 1430.5,515.5C 1429.75,513.668 1428.75,512.001 1427.5,510.5C 1438.99,509.505 1450.65,509.172 1462.5,509.5 Z"/></g>
<g><path style="opacity:0.957" fill="#001681" d="M 571.5,510.5 C 574.5,510.5 577.5,510.5 580.5,510.5C 580.336,513.187 580.503,515.854 581,518.5C 583.034,520.032 585.201,521.365 587.5,522.5C 588.5,565.495 588.833,608.495 588.5,651.5C 589.833,651.5 591.167,651.5 592.5,651.5C 592.167,608.495 592.5,565.495 593.5,522.5C 596.079,521.294 598.579,519.961 601,518.5C 601.497,515.854 601.664,513.187 601.5,510.5C 604.5,510.5 607.5,510.5 610.5,510.5C 610.5,560.833 610.5,611.167 610.5,661.5C 597.5,661.5 584.5,661.5 571.5,661.5C 571.5,611.167 571.5,560.833 571.5,510.5 Z"/></g>
<g><path style="opacity:0.985" fill="#002181" d="M 1083.5,511.5 C 1096.34,511.171 1109.01,511.505 1121.5,512.5C 1118.96,516.909 1116.96,521.575 1115.5,526.5C 1104.83,526.5 1094.17,526.5 1083.5,526.5C 1083.5,521.5 1083.5,516.5 1083.5,511.5 Z"/></g>
<g><path style="opacity:0.973" fill="#002181" d="M 1213.5,511.5 C 1215.14,516.36 1216.14,521.36 1216.5,526.5C 1206.17,526.5 1195.83,526.5 1185.5,526.5C 1184.59,521.345 1182.59,516.678 1179.5,512.5C 1190.75,511.523 1202.09,511.189 1213.5,511.5 Z"/></g>
<g><path style="opacity:0.961" fill="#002984" d="M 942.5,514.5 C 953.321,515.495 964.321,515.828 975.5,515.5C 974.5,517.5 973.5,519.5 972.5,521.5C 961.833,521.5 951.167,521.5 940.5,521.5C 940.721,518.933 941.388,516.599 942.5,514.5 Z"/></g>
<g><path style="opacity:0.972" fill="#002984" d="M 1244.5,514.5 C 1257.17,514.5 1269.83,514.5 1282.5,514.5C 1281.53,516.483 1280.53,518.483 1279.5,520.5C 1267.83,520.5 1256.17,520.5 1244.5,520.5C 1244.5,518.5 1244.5,516.5 1244.5,514.5 Z"/></g>
<g><path style="opacity:0.96" fill="#002984" d="M 1336.5,514.5 C 1347.32,515.495 1358.32,515.828 1369.5,515.5C 1369.01,517.819 1368.01,519.819 1366.5,521.5C 1355.83,521.5 1345.17,521.5 1334.5,521.5C 1334.72,518.933 1335.39,516.599 1336.5,514.5 Z"/></g>
<g><path style="opacity:0.974" fill="#002984" d="M 791.5,515.5 C 801.833,515.5 812.167,515.5 822.5,515.5C 821.637,517.421 820.971,519.421 820.5,521.5C 810.5,521.5 800.5,521.5 790.5,521.5C 790.517,519.435 790.85,517.435 791.5,515.5 Z"/></g>
<g><path style="opacity:0.969" fill="#002984" d="M 884.5,515.5 C 894.5,515.5 904.5,515.5 914.5,515.5C 914.833,517.5 915.167,519.5 915.5,521.5C 905.833,521.5 896.167,521.5 886.5,521.5C 886.029,519.421 885.363,517.421 884.5,515.5 Z"/></g>
<g><path style="opacity:0.968" fill="#002984" d="M 1430.5,515.5 C 1441.83,515.5 1453.17,515.5 1464.5,515.5C 1465.17,517.5 1465.83,519.5 1466.5,521.5C 1455.5,521.5 1444.5,521.5 1433.5,521.5C 1432.88,519.289 1431.88,517.289 1430.5,515.5 Z"/></g>
<g><path style="opacity:0.971" fill="#002e86" d="M 1244.5,520.5 C 1256.17,520.5 1267.83,520.5 1279.5,520.5C 1278.35,523.452 1277.35,526.452 1276.5,529.5C 1265.83,529.5 1255.17,529.5 1244.5,529.5C 1244.5,526.5 1244.5,523.5 1244.5,520.5 Z"/></g>
<g><path style="opacity:0.989" fill="#002f86" d="M 790.5,521.5 C 800.5,521.5 810.5,521.5 820.5,521.5C 820.461,522.583 820.127,523.583 819.5,524.5C 842.167,525.833 864.833,525.833 887.5,524.5C 886.873,523.583 886.539,522.583 886.5,521.5C 896.167,521.5 905.833,521.5 915.5,521.5C 916.159,524.455 916.492,527.455 916.5,530.5C 874.167,530.5 831.833,530.5 789.5,530.5C 789.264,527.391 789.597,524.391 790.5,521.5 Z"/></g>
<g><path style="opacity:0.972" fill="#002e86" d="M 940.5,521.5 C 951.167,521.5 961.833,521.5 972.5,521.5C 971.366,524.37 970.7,527.37 970.5,530.5C 960.167,530.5 949.833,530.5 939.5,530.5C 939.368,527.43 939.701,524.43 940.5,521.5 Z"/></g>
<g><path style="opacity:0.974" fill="#002e86" d="M 1334.5,521.5 C 1345.17,521.5 1355.83,521.5 1366.5,521.5C 1365.99,524.539 1365.32,527.539 1364.5,530.5C 1354.17,530.5 1343.83,530.5 1333.5,530.5C 1333.37,527.43 1333.7,524.43 1334.5,521.5 Z"/></g>
<g><path style="opacity:0.967" fill="#002e86" d="M 1433.5,521.5 C 1444.5,521.5 1455.5,521.5 1466.5,521.5C 1466.7,524.518 1467.04,527.518 1467.5,530.5C 1456.83,530.5 1446.17,530.5 1435.5,530.5C 1435.3,527.37 1434.63,524.37 1433.5,521.5 Z"/></g>
<g><path style="opacity:0.99" fill="#002683" d="M 1083.5,526.5 C 1094.17,526.5 1104.83,526.5 1115.5,526.5C 1114.91,529.127 1114.58,531.794 1114.5,534.5C 1104.17,534.5 1093.83,534.5 1083.5,534.5C 1083.5,531.833 1083.5,529.167 1083.5,526.5 Z"/></g>
<g><path style="opacity:0.963" fill="#002683" d="M 1185.5,526.5 C 1195.83,526.5 1206.17,526.5 1216.5,526.5C 1217.39,529.054 1217.72,531.721 1217.5,534.5C 1207.5,534.5 1197.5,534.5 1187.5,534.5C 1186.75,531.947 1186.08,529.28 1185.5,526.5 Z"/></g>
<g><path style="opacity:0.974" fill="#003588" d="M 1244.5,529.5 C 1255.17,529.5 1265.83,529.5 1276.5,529.5C 1276.28,533.179 1275.94,536.846 1275.5,540.5C 1265.17,540.5 1254.83,540.5 1244.5,540.5C 1244.5,536.833 1244.5,533.167 1244.5,529.5 Z"/></g>
<g><path style="opacity:0.994" fill="#003588" d="M 789.5,530.5 C 831.833,530.5 874.167,530.5 916.5,530.5C 916.5,534.167 916.5,537.833 916.5,541.5C 873.833,541.5 831.167,541.5 788.5,541.5C 788.185,537.629 788.518,533.962 789.5,530.5 Z"/></g>
<g><path style="opacity:0.983" fill="#003588" d="M 939.5,530.5 C 949.833,530.5 960.167,530.5 970.5,530.5C 969.577,534.064 969.244,537.731 969.5,541.5C 959.5,541.5 949.5,541.5 939.5,541.5C 938.325,537.85 938.325,534.183 939.5,530.5 Z"/></g>
<g><path style="opacity:0.983" fill="#003588" d="M 1333.5,530.5 C 1343.83,530.5 1354.17,530.5 1364.5,530.5C 1364.5,534.167 1364.5,537.833 1364.5,541.5C 1354.17,541.5 1343.83,541.5 1333.5,541.5C 1333.5,537.833 1333.5,534.167 1333.5,530.5 Z"/></g>
<g><path style="opacity:0.981" fill="#003588" d="M 1435.5,530.5 C 1446.17,530.5 1456.83,530.5 1467.5,530.5C 1467.5,534.167 1467.5,537.833 1467.5,541.5C 1457.17,541.5 1446.83,541.5 1436.5,541.5C 1436.76,537.731 1436.42,534.064 1435.5,530.5 Z"/></g>
<g><path style="opacity:0.988" fill="#002984" d="M 1083.5,534.5 C 1093.83,534.5 1104.17,534.5 1114.5,534.5C 1114.5,537.5 1114.5,540.5 1114.5,543.5C 1104.17,543.5 1093.83,543.5 1083.5,543.5C 1083.5,540.5 1083.5,537.5 1083.5,534.5 Z"/></g>
<g><path style="opacity:0.972" fill="#002984" d="M 1187.5,534.5 C 1197.5,534.5 1207.5,534.5 1217.5,534.5C 1217.5,537.5 1217.5,540.5 1217.5,543.5C 1207.17,543.5 1196.83,543.5 1186.5,543.5C 1186.96,540.518 1187.3,537.518 1187.5,534.5 Z"/></g>
<g><path style="opacity:0.984" fill="#003b8b" d="M 1244.5,540.5 C 1254.83,540.5 1265.17,540.5 1275.5,540.5C 1275.5,544.167 1275.5,547.833 1275.5,551.5C 1265.17,551.5 1254.83,551.5 1244.5,551.5C 1244.5,547.833 1244.5,544.167 1244.5,540.5 Z"/></g>
<g><path style="opacity:0.957" fill="#003a8a" d="M 788.5,541.5 C 831.167,541.5 873.833,541.5 916.5,541.5C 916.5,542.833 916.5,544.167 916.5,545.5C 884.167,545.5 851.833,545.5 819.5,545.5C 819.858,548.267 820.525,550.933 821.5,553.5C 811.167,553.5 800.833,553.5 790.5,553.5C 789.994,549.439 789.327,545.439 788.5,541.5 Z"/></g>
<g><path style="opacity:0.974" fill="#003b8b" d="M 939.5,541.5 C 949.5,541.5 959.5,541.5 969.5,541.5C 970.497,545.479 971.497,549.479 972.5,553.5C 961.833,553.5 951.167,553.5 940.5,553.5C 939.728,549.548 939.395,545.548 939.5,541.5 Z"/></g>
<g><path style="opacity:0.972" fill="#003b8b" d="M 1333.5,541.5 C 1343.83,541.5 1354.17,541.5 1364.5,541.5C 1365.19,545.584 1366.19,549.584 1367.5,553.5C 1356.5,553.5 1345.5,553.5 1334.5,553.5C 1333.84,549.534 1333.5,545.534 1333.5,541.5 Z"/></g>
<g><path style="opacity:0.969" fill="#003b8b" d="M 1436.5,541.5 C 1446.83,541.5 1457.17,541.5 1467.5,541.5C 1467.26,545.606 1466.59,549.606 1465.5,553.5C 1454.83,553.5 1444.17,553.5 1433.5,553.5C 1434.51,549.386 1435.51,545.386 1436.5,541.5 Z"/></g>
<g><path style="opacity:0.985" fill="#002e86" d="M 1083.5,543.5 C 1093.83,543.5 1104.17,543.5 1114.5,543.5C 1115.63,547.563 1116.97,551.563 1118.5,555.5C 1106.83,555.5 1095.17,555.5 1083.5,555.5C 1083.5,551.5 1083.5,547.5 1083.5,543.5 Z"/></g>
<g><path style="opacity:0.971" fill="#002e86" d="M 1186.5,543.5 C 1196.83,543.5 1207.17,543.5 1217.5,543.5C 1216.93,547.523 1216.26,551.523 1215.5,555.5C 1204.83,555.5 1194.17,555.5 1183.5,555.5C 1184.81,551.584 1185.81,547.584 1186.5,543.5 Z"/></g>
<g><path style="opacity:0.984" fill="#00418d" d="M 1244.5,551.5 C 1254.83,551.5 1265.17,551.5 1275.5,551.5C 1275.5,556.167 1275.5,560.833 1275.5,565.5C 1265.17,565.5 1254.83,565.5 1244.5,565.5C 1244.5,560.833 1244.5,556.167 1244.5,551.5 Z"/></g>
<g><path style="opacity:0.967" fill="#00418d" d="M 790.5,553.5 C 800.833,553.5 811.167,553.5 821.5,553.5C 823.143,558.791 825.81,563.458 829.5,567.5C 818.167,567.5 806.833,567.5 795.5,567.5C 793.065,563.201 791.398,558.535 790.5,553.5 Z"/></g>
<g><path style="opacity:0.963" fill="#00418d" d="M 940.5,553.5 C 951.167,553.5 961.833,553.5 972.5,553.5C 975.373,558.716 979.04,563.383 983.5,567.5C 970.833,567.5 958.167,567.5 945.5,567.5C 943.235,563.146 941.569,558.479 940.5,553.5 Z"/></g>
<g><path style="opacity:0.97" fill="#00418d" d="M 1334.5,553.5 C 1345.5,553.5 1356.5,553.5 1367.5,553.5C 1369.85,558.871 1373.19,563.538 1377.5,567.5C 1364.83,567.5 1352.17,567.5 1339.5,567.5C 1337.44,562.974 1335.77,558.308 1334.5,553.5 Z"/></g>
<g><path style="opacity:0.97" fill="#00418d" d="M 1433.5,553.5 C 1444.17,553.5 1454.83,553.5 1465.5,553.5C 1465,558.676 1463.33,563.342 1460.5,567.5C 1448.17,567.5 1435.83,567.5 1423.5,567.5C 1427.25,563.088 1430.59,558.422 1433.5,553.5 Z"/></g>
<g><path style="opacity:0.984" fill="#003588" d="M 1083.5,555.5 C 1095.17,555.5 1106.83,555.5 1118.5,555.5C 1122.15,562.145 1127.15,567.478 1133.5,571.5C 1116.83,571.5 1100.17,571.5 1083.5,571.5C 1083.5,566.167 1083.5,560.833 1083.5,555.5 Z"/></g>
<g><path style="opacity:0.964" fill="#003588" d="M 1183.5,555.5 C 1194.17,555.5 1204.83,555.5 1215.5,555.5C 1214.46,561.286 1212.46,566.619 1209.5,571.5C 1195.5,571.5 1181.5,571.5 1167.5,571.5C 1170.6,569.584 1173.6,567.417 1176.5,565C 1178.98,561.855 1181.31,558.688 1183.5,555.5 Z"/></g>
<g><path style="opacity:0.814" fill="#00438e" d="M 1046.5,568.5 C 1040.83,568.5 1035.17,568.5 1029.5,568.5C 1031.8,565.703 1034.3,563.036 1037,560.5C 1040.36,563.031 1043.52,565.698 1046.5,568.5 Z"/></g>
<g><path style="opacity:0.796" fill="#00438e" d="M 898.5,568.5 C 893.5,568.5 888.5,568.5 883.5,568.5C 885.5,566.329 887.334,563.996 889,561.5C 892.145,563.976 895.312,566.31 898.5,568.5 Z"/></g>
<g><path style="opacity:0.984" fill="#004790" d="M 1244.5,565.5 C 1254.83,565.5 1265.17,565.5 1275.5,565.5C 1275.5,569.167 1275.5,572.833 1275.5,576.5C 1265.17,576.5 1254.83,576.5 1244.5,576.5C 1244.5,572.833 1244.5,569.167 1244.5,565.5 Z"/></g>
<g><path style="opacity:0.927" fill="#00448f" d="M 1339.5,567.5 C 1352.17,567.5 1364.83,567.5 1377.5,567.5C 1379.03,567.427 1380.03,568.094 1380.5,569.5C 1367.22,568.536 1353.88,568.203 1340.5,568.5C 1339.83,568.5 1339.5,568.167 1339.5,567.5 Z"/></g>
<g><path style="opacity:0.953" fill="#00448f" d="M 1423.5,567.5 C 1435.83,567.5 1448.17,567.5 1460.5,567.5C 1460.5,567.833 1460.5,568.167 1460.5,568.5C 1447.12,568.203 1433.78,568.536 1420.5,569.5C 1420.97,568.094 1421.97,567.427 1423.5,567.5 Z"/></g>
<g><path style="opacity:0.957" fill="#004790" d="M 795.5,567.5 C 806.833,567.5 818.167,567.5 829.5,567.5C 835.805,572.984 843.139,576.317 851.5,577.5C 835.008,578.497 818.342,578.83 801.5,578.5C 798.742,575.322 796.742,571.655 795.5,567.5 Z"/></g>
<g><path style="opacity:0.939" fill="#004890" d="M 883.5,568.5 C 888.5,568.5 893.5,568.5 898.5,568.5C 902.012,571.17 905.678,573.67 909.5,576C 910.252,576.671 910.586,577.504 910.5,578.5C 893.325,578.83 876.325,578.497 859.5,577.5C 868.362,576.733 876.362,573.733 883.5,568.5 Z"/></g>
<g><path style="opacity:0.962" fill="#004890" d="M 945.5,567.5 C 958.167,567.5 970.833,567.5 983.5,567.5C 998.631,576.448 1013.96,576.782 1029.5,568.5C 1035.17,568.5 1040.83,568.5 1046.5,568.5C 1051.22,571.037 1055.55,574.204 1059.5,578C 1059.27,578.399 1058.94,578.565 1058.5,578.5C 1022.83,578.5 987.167,578.5 951.5,578.5C 948.726,575.287 946.726,571.62 945.5,567.5 Z"/></g>
<g><path style="opacity:0.962" fill="#004790" d="M 1340.5,568.5 C 1353.88,568.203 1367.22,568.536 1380.5,569.5C 1393.8,576.162 1407.13,576.162 1420.5,569.5C 1433.78,568.536 1447.12,568.203 1460.5,568.5C 1458.99,572.201 1456.99,575.534 1454.5,578.5C 1418.4,577.171 1382.4,577.171 1346.5,578.5C 1343.5,575.839 1341.5,572.505 1340.5,568.5 Z"/></g>
<g><path style="opacity:0.985" fill="#003b8b" d="M 1083.5,571.5 C 1100.17,571.5 1116.83,571.5 1133.5,571.5C 1144.83,575.5 1156.17,575.5 1167.5,571.5C 1181.5,571.5 1195.5,571.5 1209.5,571.5C 1206.62,577.706 1202.62,583.039 1197.5,587.5C 1170.17,587.5 1142.83,587.5 1115.5,587.5C 1115.17,587.5 1114.83,587.5 1114.5,587.5C 1104.17,587.5 1093.83,587.5 1083.5,587.5C 1083.5,582.167 1083.5,576.833 1083.5,571.5 Z"/></g>
<g><path style="opacity:0.977" fill="#00652d" d="M 447.5,576.5 C 457.833,576.5 468.167,576.5 478.5,576.5C 478.5,604.5 478.5,632.5 478.5,660.5C 495.167,660.5 511.833,660.5 528.5,660.5C 528.5,670.167 528.5,679.833 528.5,689.5C 501.5,689.5 474.5,689.5 447.5,689.5C 447.5,651.833 447.5,614.167 447.5,576.5 Z"/></g>
<g><path style="opacity:0.978" fill="#00652d" d="M 703.5,576.5 C 714.167,576.5 724.833,576.5 735.5,576.5C 735.5,614.167 735.5,651.833 735.5,689.5C 708.167,689.5 680.833,689.5 653.5,689.5C 653.5,679.833 653.5,670.167 653.5,660.5C 670.167,660.5 686.833,660.5 703.5,660.5C 703.5,632.5 703.5,604.5 703.5,576.5 Z"/></g>
<g><path style="opacity:0.984" fill="#004e93" d="M 1244.5,576.5 C 1254.83,576.5 1265.17,576.5 1275.5,576.5C 1275.5,581.833 1275.5,587.167 1275.5,592.5C 1265.17,592.5 1254.83,592.5 1244.5,592.5C 1244.5,587.167 1244.5,581.833 1244.5,576.5 Z"/></g>
<g><path style="opacity:0.98" fill="#004d93" d="M 851.5,577.5 C 854.167,577.5 856.833,577.5 859.5,577.5C 876.325,578.497 893.325,578.83 910.5,578.5C 905.719,585.221 899.719,590.554 892.5,594.5C 867.833,594.5 843.167,594.5 818.5,594.5C 811.547,590.548 805.88,585.214 801.5,578.5C 818.342,578.83 835.008,578.497 851.5,577.5 Z"/></g>
<g><path style="opacity:0.984" fill="#004d93" d="M 1454.5,578.5 C 1450.04,585.626 1444.04,590.96 1436.5,594.5C 1412.17,594.5 1387.83,594.5 1363.5,594.5C 1356.55,590.548 1350.88,585.214 1346.5,578.5C 1382.4,577.171 1418.4,577.171 1454.5,578.5 Z"/></g>
<g><path style="opacity:0.982" fill="#004d93" d="M 951.5,578.5 C 987.167,578.5 1022.83,578.5 1058.5,578.5C 1054.1,585.236 1048.43,590.57 1041.5,594.5C 1017.5,594.5 993.5,594.5 969.5,594.5C 961.957,590.96 955.957,585.626 951.5,578.5 Z"/></g>
<g><path style="opacity:0.984" fill="#00418d" d="M 1083.5,587.5 C 1093.83,587.5 1104.17,587.5 1114.5,587.5C 1114.5,594.167 1114.5,600.833 1114.5,607.5C 1104.17,607.5 1093.83,607.5 1083.5,607.5C 1083.5,600.833 1083.5,594.167 1083.5,587.5 Z"/></g>
<g><path style="opacity:0.954" fill="#00408d" d="M 1115.5,587.5 C 1142.83,587.5 1170.17,587.5 1197.5,587.5C 1191,594.595 1183,599.428 1173.5,602C 1154.88,607.117 1137.54,604.451 1121.5,594C 1119.29,591.963 1117.29,589.797 1115.5,587.5 Z"/></g>
<g><path style="opacity:0.984" fill="#005295" d="M 1244.5,592.5 C 1254.83,592.5 1265.17,592.5 1275.5,592.5C 1275.5,594.167 1275.5,595.833 1275.5,597.5C 1265.17,597.5 1254.83,597.5 1244.5,597.5C 1244.5,595.833 1244.5,594.167 1244.5,592.5 Z"/></g>
<g><path style="opacity:0.961" fill="#005295" d="M 818.5,594.5 C 843.167,594.5 867.833,594.5 892.5,594.5C 888.818,597.008 884.818,599.008 880.5,600.5C 863.833,599.167 847.167,599.167 830.5,600.5C 826.182,599.008 822.182,597.008 818.5,594.5 Z"/></g>
<g><path style="opacity:0.957" fill="#005295" d="M 969.5,594.5 C 993.5,594.5 1017.5,594.5 1041.5,594.5C 1038.32,597.26 1034.65,599.26 1030.5,600.5C 1013.83,599.167 997.167,599.167 980.5,600.5C 976.349,599.26 972.683,597.26 969.5,594.5 Z"/></g>
<g><path style="opacity:0.96" fill="#005295" d="M 1363.5,594.5 C 1387.83,594.5 1412.17,594.5 1436.5,594.5C 1433.32,597.26 1429.65,599.26 1425.5,600.5C 1408.83,599.167 1392.17,599.167 1375.5,600.5C 1371.19,599.01 1367.19,597.01 1363.5,594.5 Z"/></g>
<g><path style="opacity:0.837" fill="#005496" d="M 1244.5,597.5 C 1254.83,597.5 1265.17,597.5 1275.5,597.5C 1275.5,599.167 1275.5,600.833 1275.5,602.5C 1265.17,602.5 1254.83,602.5 1244.5,602.5C 1244.5,600.833 1244.5,599.167 1244.5,597.5 Z"/></g>
<g><path style="opacity:0.797" fill="#005495" d="M 830.5,600.5 C 847.167,599.167 863.833,599.167 880.5,600.5C 863.833,605.833 847.167,605.833 830.5,600.5 Z"/></g>
<g><path style="opacity:0.824" fill="#005495" d="M 980.5,600.5 C 997.167,599.167 1013.83,599.167 1030.5,600.5C 1013.84,605.802 997.173,605.802 980.5,600.5 Z"/></g>
<g><path style="opacity:0.822" fill="#005495" d="M 1375.5,600.5 C 1392.17,599.167 1408.83,599.167 1425.5,600.5C 1408.83,605.833 1392.17,605.833 1375.5,600.5 Z"/></g>
<g><path style="opacity:0.984" fill="#00448f" d="M 1083.5,607.5 C 1093.83,607.5 1104.17,607.5 1114.5,607.5C 1114.5,608.167 1114.5,608.833 1114.5,609.5C 1104.17,609.5 1093.83,609.5 1083.5,609.5C 1083.5,608.833 1083.5,608.167 1083.5,607.5 Z"/></g>
<g><path style="opacity:0.984" fill="#004790" d="M 1083.5,609.5 C 1093.83,609.5 1104.17,609.5 1114.5,609.5C 1114.5,613.833 1114.5,618.167 1114.5,622.5C 1104.17,622.5 1093.83,622.5 1083.5,622.5C 1083.5,618.167 1083.5,613.833 1083.5,609.5 Z"/></g>
<g><path style="opacity:0.984" fill="#004d93" d="M 1083.5,622.5 C 1093.83,622.5 1104.17,622.5 1114.5,622.5C 1114.5,630.167 1114.5,637.833 1114.5,645.5C 1104.17,645.5 1093.83,645.5 1083.5,645.5C 1083.5,637.833 1083.5,630.167 1083.5,622.5 Z"/></g>
<g><path style="opacity:0.776" fill="#00652d" d="M 1148.5,624.5 C 1150.5,624.5 1152.5,624.5 1154.5,624.5C 1154.5,632.5 1154.5,640.5 1154.5,648.5C 1152.5,648.5 1150.5,648.5 1148.5,648.5C 1148.5,640.5 1148.5,632.5 1148.5,624.5 Z"/></g>
<g><path style="opacity:0.718" fill="#00652d" d="M 1299.5,624.5 C 1301.2,624.34 1302.87,624.506 1304.5,625C 1305.99,628.841 1304.66,630.174 1300.5,629C 1299.62,627.644 1299.29,626.144 1299.5,624.5 Z"/></g>
<g><path style="opacity:0.63" fill="#00652d" d="M 1323.5,624.5 C 1329.67,624.933 1329.84,626.6 1324,629.5C 1323.17,629.333 1322.33,629.167 1321.5,629C 1322.58,627.67 1323.25,626.17 1323.5,624.5 Z"/></g>
<g><path style="opacity:0.815" fill="#00652d" d="M 1384.5,624.5 C 1389.83,624.5 1395.17,624.5 1400.5,624.5C 1401.38,628.49 1400.05,631.323 1396.5,633C 1402.68,637.592 1403.01,642.592 1397.5,648C 1392.22,650.31 1387.55,649.476 1383.5,645.5C 1384.04,644.252 1384.71,643.085 1385.5,642C 1387.34,642.579 1389.34,643.079 1391.5,643.5C 1396.06,643.172 1397.06,641.339 1394.5,638C 1392.19,637.503 1389.86,637.337 1387.5,637.5C 1387.33,633.83 1388.99,631.33 1392.5,630C 1389.85,629.503 1387.19,629.336 1384.5,629.5C 1384.5,627.833 1384.5,626.167 1384.5,624.5 Z"/></g>
<g><path style="opacity:0.882" fill="#00652d" d="M 1411.5,624.5 C 1417.43,623.889 1423.1,624.722 1428.5,627C 1434.13,634.02 1433.79,640.686 1427.5,647C 1422.29,648.397 1416.96,648.897 1411.5,648.5C 1411.5,640.5 1411.5,632.5 1411.5,624.5 Z M 1416.5,629.5 C 1422.58,628.669 1426.25,631.169 1427.5,637C 1425.96,642.696 1422.29,644.863 1416.5,643.5C 1416.5,638.833 1416.5,634.167 1416.5,629.5 Z"/></g>
<g><path style="opacity:0.835" fill="#00652d" d="M 1164.5,631.5 C 1172.57,631.907 1180.57,632.073 1188.5,632C 1189.7,632.903 1190.53,634.069 1191,635.5C 1191.5,639.821 1191.67,644.154 1191.5,648.5C 1189.83,648.5 1188.17,648.5 1186.5,648.5C 1186.67,645.15 1186.5,641.817 1186,638.5C 1184.54,635.557 1182.87,635.224 1181,637.5C 1180.5,641.152 1180.33,644.818 1180.5,648.5C 1178.83,648.5 1177.17,648.5 1175.5,648.5C 1175.67,644.818 1175.5,641.152 1175,637.5C 1174.07,635.665 1172.91,635.332 1171.5,636.5C 1170.51,640.445 1170.18,644.445 1170.5,648.5C 1168.5,648.5 1166.5,648.5 1164.5,648.5C 1164.5,642.833 1164.5,637.167 1164.5,631.5 Z"/></g>
<g><path style="opacity:0.857" fill="#00652d" d="M 1202.5,631.5 C 1206.69,631.948 1211.03,632.114 1215.5,632C 1221.69,636.927 1222.02,642.26 1216.5,648C 1215,648.5 1213.5,649 1212,649.5C 1210.56,648.852 1209.06,648.519 1207.5,648.5C 1207.5,650.833 1207.5,653.167 1207.5,655.5C 1205.83,655.5 1204.17,655.5 1202.5,655.5C 1202.5,647.5 1202.5,639.5 1202.5,631.5 Z M 1208.5,636.5 C 1213.68,635.507 1215.51,637.507 1214,642.5C 1212,645.167 1210,645.167 1208,642.5C 1207.51,640.455 1207.68,638.455 1208.5,636.5 Z"/></g>
<g><path style="opacity:0.769" fill="#00652d" d="M 1229.5,631.5 C 1233.32,632.105 1236.98,632.105 1240.5,631.5C 1240.5,633.167 1240.5,634.833 1240.5,636.5C 1238.61,636.297 1237.11,636.963 1236,638.5C 1235.5,641.817 1235.33,645.15 1235.5,648.5C 1233.5,648.5 1231.5,648.5 1229.5,648.5C 1229.5,642.833 1229.5,637.167 1229.5,631.5 Z"/></g>
<g><path style="opacity:0.822" fill="#00652d" d="M 1253.5,631.5 C 1261.99,629.722 1265.99,633.055 1265.5,641.5C 1261.77,641.177 1258.11,641.511 1254.5,642.5C 1256.83,644.987 1259.33,644.987 1262,642.5C 1263.17,643.667 1264.33,644.833 1265.5,646C 1256.87,652.071 1251.21,650.071 1248.5,640C 1249.06,636.372 1250.72,633.538 1253.5,631.5 Z M 1255.5,635.5 C 1257.66,635.116 1259.33,635.783 1260.5,637.5C 1258.5,638.833 1256.5,638.833 1254.5,637.5C 1254.86,636.817 1255.2,636.15 1255.5,635.5 Z"/></g>
<g><path style="opacity:0.786" fill="#00652d" d="M 1277.5,631.5 C 1281.58,631.043 1285.42,631.71 1289,633.5C 1289.31,635.391 1288.48,636.725 1286.5,637.5C 1284.72,635.553 1282.72,635.22 1280.5,636.5C 1283.74,637.52 1286.58,639.187 1289,641.5C 1290.04,646.634 1287.88,649.301 1282.5,649.5C 1279.61,649.373 1277.11,648.373 1275,646.5C 1275.13,643.018 1276.63,642.184 1279.5,644C 1281.17,644.667 1282.83,644.667 1284.5,644C 1281.62,642.642 1278.79,641.142 1276,639.5C 1275.11,636.502 1275.61,633.836 1277.5,631.5 Z"/></g>
<g><path style="opacity:0.873" fill="#00652d" d="M 1299.5,631.5 C 1301.17,631.5 1302.83,631.5 1304.5,631.5C 1304.5,637.167 1304.5,642.833 1304.5,648.5C 1302.83,648.5 1301.17,648.5 1299.5,648.5C 1299.5,642.833 1299.5,637.167 1299.5,631.5 Z"/></g>
<g><path style="opacity:0.826" fill="#00652d" d="M 1319.5,631.5 C 1331.56,630.728 1335.23,635.895 1330.5,647C 1322.33,651.056 1316.99,648.722 1314.5,640C 1315.06,636.372 1316.72,633.538 1319.5,631.5 Z M 1321.5,636.5 C 1326.33,635.84 1328.16,637.84 1327,642.5C 1325,645.167 1323,645.167 1321,642.5C 1320.32,640.402 1320.49,638.402 1321.5,636.5 Z"/></g>
<g><path style="opacity:0.864" fill="#00652d" d="M 1342.5,631.5 C 1345.8,632.154 1348.97,632.154 1352,631.5C 1354.15,631.396 1355.98,632.063 1357.5,633.5C 1358.45,638.435 1358.78,643.435 1358.5,648.5C 1356.83,648.5 1355.17,648.5 1353.5,648.5C 1353.82,644.445 1353.49,640.445 1352.5,636.5C 1350.19,635.067 1348.69,635.734 1348,638.5C 1347.5,641.817 1347.33,645.15 1347.5,648.5C 1345.83,648.5 1344.17,648.5 1342.5,648.5C 1342.5,642.833 1342.5,637.167 1342.5,631.5 Z"/></g>
<g><path style="opacity:0.984" fill="#005295" d="M 1083.5,645.5 C 1093.83,645.5 1104.17,645.5 1114.5,645.5C 1114.5,648.167 1114.5,650.833 1114.5,653.5C 1104.17,653.5 1093.83,653.5 1083.5,653.5C 1083.5,650.833 1083.5,648.167 1083.5,645.5 Z"/></g>
<g><path style="opacity:0.984" fill="#005495" d="M 1083.5,653.5 C 1093.83,653.5 1104.17,653.5 1114.5,653.5C 1114.5,655.5 1114.5,657.5 1114.5,659.5C 1104.17,659.5 1093.83,659.5 1083.5,659.5C 1083.5,657.5 1083.5,655.5 1083.5,653.5 Z"/></g>
</svg>
